<svg id="svg" version="1.1" xmlns="http://www.w3.org/2000/svg" xmlns:xlink="http://www.w3.org/1999/xlink" width="400" height="400" viewBox="0, 0, 400,400"><g id="svgg"><path id="path0" d="M267.200 63.077 C 242.083 65.749,219.359 81.506,208.181 104.000 C 204.843 110.718,203.072 116.022,201.637 123.600 C 200.286 130.739,200.000 137.631,200.000 163.057 L 200.000 187.600 180.700 187.604 C 149.246 187.611,150.000 186.846,150.000 218.800 C 150.000 241.200,150.228 242.696,154.209 246.366 C 158.035 249.892,158.829 250.000,180.946 250.000 L 200.000 250.000 200.000 325.000 L 200.000 400.000 231.200 400.000 L 262.400 400.000 262.400 325.017 L 262.400 250.033 283.300 249.912 C 302.722 249.799,304.351 249.736,306.338 249.022 C 308.560 248.224,312.400 245.146,312.400 244.163 C 312.400 243.853,312.559 243.600,312.753 243.600 C 312.948 243.600,313.230 243.195,313.380 242.700 C 313.995 240.677,314.441 238.884,314.846 236.800 C 315.082 235.590,315.415 233.880,315.587 233.000 C 315.758 232.120,316.540 228.250,317.324 224.400 C 321.355 204.587,321.725 202.498,321.714 199.584 C 321.692 193.903,318.553 190.030,312.372 188.056 C 311.367 187.735,303.741 187.600,286.672 187.600 L 262.400 187.600 262.406 161.300 C 262.411 141.467,262.534 134.656,262.906 133.600 C 264.154 130.062,266.737 127.315,270.290 125.743 L 272.423 124.800 293.396 124.800 C 317.707 124.800,317.180 124.872,321.026 121.026 C 324.915 117.138,324.838 117.721,324.710 93.058 L 324.600 71.800 323.600 69.803 C 322.212 67.030,319.621 64.615,316.973 63.624 C 314.912 62.853,273.578 62.398,267.200 63.077 " stroke="none" fill="#fbfbfb" fill-rule="evenodd"></path><path id="path1" d="M308.014 0.137 C 308.132 0.261,308.852 0.444,309.614 0.545 C 310.377 0.645,311.540 0.910,312.200 1.134 C 312.860 1.358,315.278 2.130,317.574 2.849 C 331.822 7.313,344.475 18.473,351.080 32.400 C 359.947 51.096,357.496 73.670,344.783 90.400 C 340.386 96.185,331.414 103.845,326.471 106.033 L 325.200 106.595 325.200 111.302 C 325.200 116.846,324.570 118.656,321.613 121.612 C 318.065 125.156,319.427 124.970,295.200 125.226 C 283.430 125.351,273.260 125.590,272.600 125.757 C 268.005 126.924,264.541 130.387,263.353 135.000 C 263.183 135.660,262.987 147.675,262.916 161.700 L 262.788 187.200 288.000 187.200 C 301.866 187.200,313.523 187.359,313.905 187.553 C 314.287 187.748,315.119 188.151,315.752 188.449 C 321.063 190.948,323.555 197.107,322.045 204.000 C 321.780 205.210,321.391 207.100,321.182 208.200 C 320.972 209.300,320.637 211.010,320.437 212.000 C 320.026 214.037,319.278 217.817,318.815 220.200 C 318.643 221.080,318.223 223.150,317.880 224.800 C 317.537 226.450,316.953 229.420,316.583 231.400 C 314.618 241.910,313.776 244.198,310.901 246.849 C 307.134 250.321,308.192 250.184,284.100 250.325 L 262.800 250.451 262.800 325.257 L 262.800 400.063 290.180 399.931 C 311.408 399.830,317.673 399.688,318.060 399.300 C 318.335 399.025,319.323 398.800,320.256 398.800 C 321.189 398.800,322.064 398.620,322.200 398.400 C 322.336 398.180,323.067 398.000,323.824 398.000 C 324.581 398.000,325.200 397.820,325.200 397.600 C 325.200 397.380,325.920 397.200,326.800 397.200 C 327.680 397.200,328.400 397.020,328.400 396.800 C 328.400 396.580,328.940 396.400,329.600 396.400 C 330.260 396.400,330.800 396.220,330.800 396.000 C 330.800 395.780,331.340 395.600,332.000 395.600 C 332.660 395.600,333.200 395.420,333.200 395.200 C 333.200 394.980,333.740 394.800,334.400 394.800 C 335.060 394.800,335.600 394.620,335.600 394.400 C 335.600 394.180,336.050 394.000,336.600 394.000 C 337.150 394.000,337.600 393.820,337.600 393.600 C 337.600 393.380,338.050 393.200,338.600 393.200 C 339.150 393.200,339.600 393.020,339.600 392.800 C 339.600 392.580,339.960 392.400,340.400 392.400 C 340.840 392.400,341.200 392.234,341.200 392.032 C 341.200 391.829,341.785 391.535,342.500 391.378 C 344.134 391.019,347.200 389.546,347.200 389.120 C 347.200 388.944,347.560 388.800,348.000 388.800 C 348.440 388.800,348.800 388.620,348.800 388.400 C 348.800 388.180,349.160 388.000,349.600 388.000 C 350.040 388.000,350.400 387.820,350.400 387.600 C 350.400 387.380,350.720 387.200,351.112 387.200 C 351.503 387.200,352.083 386.840,352.400 386.400 C 352.717 385.960,353.297 385.600,353.688 385.600 C 354.080 385.600,354.400 385.420,354.400 385.200 C 354.400 384.980,354.670 384.800,355.000 384.800 C 355.330 384.800,355.600 384.620,355.600 384.400 C 355.600 384.180,355.870 384.000,356.200 384.000 C 356.530 384.000,356.800 383.820,356.800 383.600 C 356.800 383.380,356.998 383.200,357.240 383.200 C 357.481 383.200,358.183 382.660,358.800 382.000 C 359.417 381.340,360.137 380.800,360.400 380.800 C 360.663 380.800,361.383 380.260,362.000 379.600 C 362.617 378.940,363.288 378.400,363.492 378.400 C 364.524 378.400,378.400 364.524,378.400 363.492 C 378.400 363.288,378.940 362.617,379.600 362.000 C 380.260 361.383,380.800 360.663,380.800 360.400 C 380.800 360.137,381.340 359.417,382.000 358.800 C 382.660 358.183,383.200 357.481,383.200 357.240 C 383.200 356.998,383.380 356.800,383.600 356.800 C 383.820 356.800,384.000 356.530,384.000 356.200 C 384.000 355.870,384.180 355.600,384.400 355.600 C 384.620 355.600,384.800 355.330,384.800 355.000 C 384.800 354.670,384.980 354.400,385.200 354.400 C 385.420 354.400,385.600 354.164,385.600 353.875 C 385.600 353.587,385.960 352.964,386.400 352.492 C 386.840 352.020,387.200 351.356,387.200 351.017 C 387.200 350.678,387.380 350.400,387.600 350.400 C 387.820 350.400,388.000 350.040,388.000 349.600 C 388.000 349.160,388.180 348.800,388.400 348.800 C 388.620 348.800,388.800 348.440,388.800 348.000 C 388.800 347.560,388.944 347.200,389.120 347.200 C 389.546 347.200,391.019 344.134,391.378 342.500 C 391.535 341.785,391.829 341.200,392.032 341.200 C 392.234 341.200,392.400 340.840,392.400 340.400 C 392.400 339.960,392.580 339.600,392.800 339.600 C 393.020 339.600,393.200 339.161,393.200 338.624 C 393.200 338.087,393.380 337.536,393.600 337.400 C 393.820 337.264,394.000 336.803,394.000 336.376 C 394.000 335.949,394.180 335.600,394.400 335.600 C 394.620 335.600,394.800 335.060,394.800 334.400 C 394.800 333.740,394.980 333.200,395.200 333.200 C 395.420 333.200,395.600 332.660,395.600 332.000 C 395.600 331.340,395.780 330.800,396.000 330.800 C 396.220 330.800,396.400 330.260,396.400 329.600 C 396.400 328.940,396.580 328.400,396.800 328.400 C 397.020 328.400,397.200 327.680,397.200 326.800 C 397.200 325.920,397.380 325.200,397.600 325.200 C 397.820 325.200,398.000 324.581,398.000 323.824 C 398.000 323.067,398.180 322.336,398.400 322.200 C 398.620 322.064,398.800 321.189,398.800 320.256 C 398.800 319.323,399.025 318.335,399.300 318.060 C 399.698 317.662,399.800 293.515,399.800 200.000 C 399.800 106.485,399.698 82.338,399.300 81.940 C 399.025 81.665,398.800 80.677,398.800 79.744 C 398.800 78.811,398.620 77.936,398.400 77.800 C 398.180 77.664,398.000 76.933,398.000 76.176 C 398.000 75.419,397.820 74.800,397.600 74.800 C 397.380 74.800,397.200 74.080,397.200 73.200 C 397.200 72.320,397.020 71.600,396.800 71.600 C 396.580 71.600,396.400 71.060,396.400 70.400 C 396.400 69.740,396.220 69.200,396.000 69.200 C 395.780 69.200,395.600 68.660,395.600 68.000 C 395.600 67.340,395.420 66.800,395.200 66.800 C 394.980 66.800,394.800 66.260,394.800 65.600 C 394.800 64.940,394.620 64.400,394.400 64.400 C 394.180 64.400,394.000 64.051,394.000 63.624 C 394.000 63.197,393.820 62.736,393.600 62.600 C 393.380 62.464,393.200 61.913,393.200 61.376 C 393.200 60.839,393.062 60.400,392.894 60.400 C 392.561 60.400,391.200 57.469,391.200 56.752 C 391.200 56.190,389.500 53.044,389.100 52.867 C 388.935 52.793,388.800 52.388,388.800 51.967 C 388.800 51.545,388.620 51.200,388.400 51.200 C 388.180 51.200,388.000 50.840,388.000 50.400 C 388.000 49.960,387.820 49.600,387.600 49.600 C 387.380 49.600,387.200 49.364,387.200 49.075 C 387.200 48.787,386.840 48.164,386.400 47.692 C 385.960 47.220,385.600 46.556,385.600 46.217 C 385.600 45.878,385.420 45.600,385.200 45.600 C 384.980 45.600,384.800 45.330,384.800 45.000 C 384.800 44.670,384.620 44.400,384.400 44.400 C 384.180 44.400,384.000 44.222,384.000 44.005 C 384.000 43.584,383.174 42.493,381.700 40.968 C 381.205 40.456,380.800 39.830,380.800 39.579 C 380.800 39.327,380.260 38.617,379.600 38.000 C 378.940 37.383,378.400 36.712,378.400 36.508 C 378.400 35.759,369.808 26.725,369.443 27.091 C 369.309 27.224,369.200 27.003,369.200 26.600 C 369.200 26.197,369.105 25.962,368.988 26.078 C 368.872 26.195,367.682 25.235,366.343 23.945 C 365.004 22.655,363.732 21.600,363.515 21.600 C 363.298 21.600,362.617 21.060,362.000 20.400 C 361.383 19.740,360.673 19.200,360.421 19.200 C 360.170 19.200,359.544 18.795,359.032 18.300 C 357.507 16.826,356.416 16.000,355.995 16.000 C 355.778 16.000,355.600 15.820,355.600 15.600 C 355.600 15.380,355.330 15.200,355.000 15.200 C 354.670 15.200,354.400 15.020,354.400 14.800 C 354.400 14.580,354.122 14.400,353.783 14.400 C 353.444 14.400,352.780 14.040,352.308 13.600 C 351.836 13.160,351.213 12.800,350.925 12.800 C 350.636 12.800,350.400 12.620,350.400 12.400 C 350.400 12.180,350.055 12.000,349.633 12.000 C 349.212 12.000,348.807 11.865,348.733 11.700 C 348.549 11.286,345.200 9.488,345.200 9.803 C 345.200 9.943,344.907 9.764,344.548 9.406 C 344.190 9.047,343.656 8.846,343.361 8.960 C 343.067 9.073,342.719 8.993,342.589 8.783 C 342.459 8.572,341.993 8.400,341.553 8.400 C 341.113 8.400,340.864 8.220,341.000 8.000 C 341.136 7.780,340.877 7.600,340.424 7.600 C 339.971 7.600,339.600 7.420,339.600 7.200 C 339.600 6.980,339.161 6.800,338.624 6.800 C 338.087 6.800,337.536 6.620,337.400 6.400 C 337.264 6.180,336.803 6.000,336.376 6.000 C 335.949 6.000,335.600 5.820,335.600 5.600 C 335.600 5.380,335.060 5.200,334.400 5.200 C 333.740 5.200,333.200 5.020,333.200 4.800 C 333.200 4.580,332.660 4.400,332.000 4.400 C 331.340 4.400,330.800 4.220,330.800 4.000 C 330.800 3.780,330.260 3.600,329.600 3.600 C 328.940 3.600,328.400 3.420,328.400 3.200 C 328.400 2.980,327.680 2.800,326.800 2.800 C 325.920 2.800,325.200 2.620,325.200 2.400 C 325.200 2.180,324.581 2.000,323.824 2.000 C 323.067 2.000,322.336 1.820,322.200 1.600 C 322.064 1.380,321.189 1.200,320.256 1.200 C 319.323 1.200,318.389 1.038,318.180 0.840 C 317.774 0.456,307.652 -0.244,308.014 0.137 M81.600 0.800 C 81.600 1.301,82.024 1.301,82.800 0.800 C 83.285 0.486,83.228 0.411,82.500 0.406 C 82.005 0.403,81.600 0.580,81.600 0.800 M53.300 10.412 C 52.145 11.074,51.200 11.693,51.200 11.787 C 51.200 11.953,55.624 9.709,55.962 9.371 C 56.506 8.828,55.113 9.372,53.300 10.412 M35.429 22.229 C 35.005 22.538,34.772 22.905,34.910 23.043 C 35.049 23.182,35.462 22.995,35.829 22.629 C 36.691 21.766,36.425 21.500,35.429 22.229 M33.700 23.823 C 33.111 24.463,33.062 24.800,33.557 24.800 C 33.898 24.800,34.537 23.596,34.309 23.383 C 34.249 23.327,33.975 23.525,33.700 23.823 M27.260 29.842 C 26.962 30.178,26.799 30.532,26.895 30.629 C 26.992 30.726,27.398 30.444,27.798 30.002 C 28.197 29.561,28.361 29.207,28.162 29.215 C 27.963 29.224,27.557 29.505,27.260 29.842 M22.060 35.442 C 21.331 36.266,21.800 36.657,22.581 35.876 C 22.921 35.536,23.200 35.154,23.200 35.029 C 23.200 34.609,22.606 34.824,22.060 35.442 M17.300 41.798 C 16.731 42.445,16.661 42.800,17.104 42.800 C 17.271 42.800,17.632 42.440,17.907 42.000 C 18.478 41.087,18.051 40.945,17.300 41.798 M10.498 53.043 C 10.001 54.009,9.669 54.800,9.758 54.800 C 10.050 54.800,11.636 51.907,11.516 51.592 C 11.452 51.423,10.994 52.076,10.498 53.043 M0.400 82.200 C 0.400 82.530,0.580 82.800,0.800 82.800 C 1.020 82.800,1.200 82.530,1.200 82.200 C 1.200 81.870,1.020 81.600,0.800 81.600 C 0.580 81.600,0.400 81.870,0.400 82.200 M178.800 112.827 C 168.455 113.341,160.377 114.335,151.000 116.250 C 149.240 116.609,147.080 117.044,146.200 117.216 C 144.770 117.496,140.698 118.551,136.800 119.650 C 136.030 119.867,134.860 120.188,134.200 120.364 C 125.093 122.781,99.881 133.421,96.200 136.400 C 95.980 136.578,94.738 137.305,93.439 138.016 C 85.156 142.551,73.314 151.056,64.001 159.159 C 48.646 172.521,35.152 189.159,23.907 208.600 C 23.033 210.111,16.761 222.789,15.695 225.200 C 13.232 230.770,9.372 241.423,7.796 247.000 C 7.423 248.320,6.971 249.850,6.791 250.400 C 6.611 250.950,6.081 253.020,5.613 255.000 C 5.145 256.980,4.601 259.230,4.405 260.000 C 4.209 260.770,3.844 262.570,3.594 264.000 C 3.344 265.430,2.984 267.410,2.795 268.400 C 2.605 269.390,2.252 271.730,2.011 273.600 C 1.769 275.470,1.481 277.630,1.370 278.400 C 0.142 286.907,-0.360 317.000,0.708 318.068 C 0.978 318.338,1.200 319.334,1.200 320.280 C 1.200 321.226,1.380 322.000,1.600 322.000 C 1.820 322.000,2.000 322.720,2.000 323.600 C 2.000 324.480,2.180 325.200,2.400 325.200 C 2.620 325.200,2.800 325.920,2.800 326.800 C 2.800 327.680,2.980 328.400,3.200 328.400 C 3.420 328.400,3.600 328.940,3.600 329.600 C 3.600 330.260,3.780 330.800,4.000 330.800 C 4.220 330.800,4.400 331.340,4.400 332.000 C 4.400 332.660,4.580 333.200,4.800 333.200 C 5.020 333.200,5.200 333.740,5.200 334.400 C 5.200 335.060,5.380 335.600,5.600 335.600 C 5.820 335.600,6.000 335.949,6.000 336.376 C 6.000 336.803,6.180 337.264,6.400 337.400 C 6.620 337.536,6.800 338.087,6.800 338.624 C 6.800 339.161,6.980 339.600,7.200 339.600 C 7.420 339.600,7.600 339.960,7.600 340.400 C 7.600 340.840,7.780 341.200,8.000 341.200 C 8.220 341.200,8.400 341.470,8.400 341.800 C 8.400 342.130,8.563 342.400,8.763 342.400 C 8.962 342.400,9.038 342.733,8.931 343.140 C 8.825 343.548,8.990 344.133,9.298 344.440 C 9.900 345.043,9.960 345.162,10.282 346.391 C 10.398 346.836,10.652 347.200,10.847 347.200 C 11.041 347.200,11.200 347.560,11.200 348.000 C 11.200 348.440,11.380 348.800,11.600 348.800 C 11.820 348.800,12.000 349.160,12.000 349.600 C 12.000 350.040,12.180 350.400,12.400 350.400 C 12.620 350.400,12.800 350.636,12.800 350.925 C 12.800 351.213,13.160 351.836,13.600 352.308 C 14.040 352.780,14.400 353.444,14.400 353.783 C 14.400 354.122,14.550 354.400,14.732 354.400 C 14.915 354.400,15.320 354.892,15.632 355.494 C 16.270 356.724,16.981 357.667,18.300 359.032 C 18.795 359.544,19.200 360.170,19.200 360.421 C 19.200 360.673,19.740 361.383,20.400 362.000 C 21.060 362.617,21.600 363.298,21.600 363.515 C 21.600 363.732,22.655 365.004,23.945 366.343 C 25.235 367.682,26.195 368.872,26.078 368.988 C 25.962 369.105,26.197 369.200,26.600 369.200 C 27.003 369.200,27.224 369.309,27.091 369.443 C 26.880 369.653,29.207 372.034,33.889 376.399 C 34.597 377.059,35.341 377.600,35.540 377.600 C 35.740 377.600,36.645 378.320,37.552 379.200 C 38.459 380.080,39.387 380.800,39.615 380.800 C 39.842 380.800,40.478 381.205,41.028 381.700 C 42.971 383.450,43.436 383.806,44.512 384.368 C 45.110 384.680,45.600 385.085,45.600 385.268 C 45.600 385.450,45.878 385.600,46.217 385.600 C 46.556 385.600,47.220 385.960,47.692 386.400 C 48.164 386.840,48.787 387.200,49.075 387.200 C 49.364 387.200,49.600 387.380,49.600 387.600 C 49.600 387.820,49.960 388.000,50.400 388.000 C 50.840 388.000,51.200 388.180,51.200 388.400 C 51.200 388.620,51.560 388.800,52.000 388.800 C 52.440 388.800,52.800 388.980,52.800 389.200 C 52.800 389.420,53.145 389.600,53.567 389.600 C 53.988 389.600,54.395 389.786,54.471 390.014 C 54.547 390.242,55.417 390.701,56.405 391.036 C 59.070 391.938,60.400 392.558,60.400 392.898 C 60.400 393.064,60.839 393.200,61.376 393.200 C 61.913 393.200,62.464 393.380,62.600 393.600 C 62.736 393.820,63.197 394.000,63.624 394.000 C 64.051 394.000,64.400 394.180,64.400 394.400 C 64.400 394.620,64.940 394.800,65.600 394.800 C 66.260 394.800,66.800 394.980,66.800 395.200 C 66.800 395.420,67.340 395.600,68.000 395.600 C 68.660 395.600,69.200 395.780,69.200 396.000 C 69.200 396.220,69.740 396.400,70.400 396.400 C 71.060 396.400,71.600 396.580,71.600 396.800 C 71.600 397.020,72.320 397.200,73.200 397.200 C 74.080 397.200,74.800 397.380,74.800 397.600 C 74.800 397.820,75.520 398.000,76.400 398.000 C 77.280 398.000,78.000 398.180,78.000 398.400 C 78.000 398.620,78.885 398.800,79.967 398.800 C 81.184 398.800,81.997 398.990,82.100 399.300 C 82.232 399.696,94.438 399.824,140.933 399.916 L 199.600 400.032 199.600 325.216 L 199.600 250.400 179.224 250.400 C 166.071 250.400,158.760 250.258,158.600 250.000 C 158.464 249.780,158.003 249.600,157.576 249.600 C 157.149 249.600,156.800 249.420,156.800 249.200 C 156.800 248.980,156.555 248.800,156.256 248.800 C 154.886 248.800,151.047 244.316,150.106 241.618 C 149.398 239.585,149.397 198.008,150.106 196.000 C 151.198 192.906,154.017 189.630,156.600 188.453 C 157.260 188.153,158.113 187.748,158.495 187.553 C 158.877 187.359,168.276 187.200,179.382 187.200 L 199.576 187.200 199.734 157.500 C 199.835 138.466,200.047 127.010,200.325 125.600 C 200.563 124.390,200.957 122.500,201.201 121.400 C 201.445 120.300,201.744 118.813,201.866 118.096 C 201.988 117.379,202.249 116.694,202.444 116.573 C 202.640 116.452,202.800 115.834,202.800 115.200 C 202.800 114.566,202.980 113.936,203.200 113.800 C 205.505 112.375,195.748 111.986,178.800 112.827 " stroke="none" fill="#2c5cb4" fill-rule="evenodd"></path><path id="path2" d="M85.600 0.362 C 84.170 0.493,82.807 0.726,82.571 0.880 C 82.335 1.033,81.390 1.204,80.471 1.258 C 79.552 1.312,78.800 1.483,78.800 1.638 C 78.800 1.793,78.035 2.019,77.100 2.141 C 73.737 2.580,72.400 2.894,72.400 3.244 C 72.400 3.440,71.858 3.600,71.195 3.600 C 70.532 3.600,69.587 3.808,69.095 4.062 C 67.174 5.056,66.784 5.200,66.029 5.200 C 65.599 5.200,65.136 5.380,65.000 5.600 C 64.864 5.820,64.403 6.000,63.976 6.000 C 63.549 6.000,63.200 6.180,63.200 6.400 C 63.200 6.620,62.845 6.800,62.412 6.800 C 61.979 6.800,60.983 7.160,60.200 7.600 C 59.417 8.040,58.511 8.400,58.188 8.400 C 57.865 8.400,57.600 8.610,57.600 8.867 C 57.600 9.123,57.490 9.224,57.356 9.090 C 57.223 8.956,55.936 9.460,54.497 10.210 C 53.059 10.960,51.700 11.462,51.479 11.325 C 51.251 11.184,51.200 11.276,51.362 11.538 C 51.531 11.812,51.393 12.000,51.024 12.000 C 50.681 12.000,50.400 12.136,50.400 12.302 C 50.400 12.469,49.815 12.858,49.100 13.168 C 47.579 13.826,44.260 16.008,44.067 16.477 C 43.993 16.655,43.678 16.800,43.367 16.800 C 43.055 16.800,42.800 16.980,42.800 17.200 C 42.800 17.420,42.530 17.600,42.200 17.600 C 41.870 17.600,41.600 17.780,41.600 18.000 C 41.600 18.220,41.370 18.400,41.088 18.400 C 40.807 18.400,40.317 18.760,40.000 19.200 C 39.683 19.640,39.093 20.000,38.688 20.000 C 38.284 20.000,38.064 20.180,38.200 20.400 C 38.336 20.620,38.239 20.800,37.984 20.800 C 37.729 20.800,37.017 21.340,36.400 22.000 C 35.783 22.660,35.093 23.200,34.866 23.200 C 34.640 23.200,34.340 23.560,34.200 24.000 C 34.060 24.440,33.710 24.800,33.421 24.800 C 32.685 24.800,23.200 34.361,23.200 35.102 C 23.200 35.199,22.660 35.783,22.000 36.400 C 21.340 37.017,20.800 37.719,20.800 37.960 C 20.800 38.202,20.620 38.400,20.400 38.400 C 20.180 38.400,20.000 38.604,20.000 38.853 C 20.000 39.102,19.684 39.597,19.297 39.953 C 18.911 40.309,18.340 41.095,18.030 41.700 C 17.719 42.305,17.315 42.800,17.132 42.800 C 16.950 42.800,16.800 43.055,16.800 43.367 C 16.800 43.678,16.655 43.993,16.477 44.067 C 16.009 44.259,13.600 47.865,13.600 48.372 C 13.600 48.607,13.447 48.800,13.261 48.800 C 13.074 48.800,12.586 49.565,12.177 50.500 C 11.767 51.435,11.048 52.830,10.579 53.600 C 10.110 54.370,9.802 55.225,9.896 55.500 C 9.990 55.775,9.872 56.000,9.633 56.000 C 9.395 56.000,9.200 56.360,9.200 56.800 C 9.200 57.240,9.020 57.600,8.800 57.600 C 8.580 57.600,8.400 57.960,8.400 58.400 C 8.400 58.840,8.220 59.200,8.000 59.200 C 7.780 59.200,7.600 59.549,7.600 59.976 C 7.600 60.403,7.420 60.864,7.200 61.000 C 6.980 61.136,6.800 61.687,6.800 62.224 C 6.800 62.761,6.620 63.200,6.400 63.200 C 6.180 63.200,6.000 63.549,6.000 63.976 C 6.000 64.403,5.820 64.864,5.600 65.000 C 5.380 65.136,5.200 65.777,5.200 66.424 C 5.200 67.071,5.020 67.600,4.800 67.600 C 4.580 67.600,4.400 67.949,4.400 68.376 C 4.400 68.803,4.220 69.264,4.000 69.400 C 3.780 69.536,3.600 70.179,3.600 70.829 C 3.600 71.479,3.438 72.323,3.239 72.705 C 2.583 73.967,1.200 79.983,1.200 81.572 C 1.200 82.211,0.975 82.808,0.700 82.900 C 0.302 83.033,0.187 104.102,0.135 186.233 C 0.099 242.975,0.216 288.950,0.395 288.400 C 0.574 287.850,0.738 286.245,0.760 284.833 C 0.782 283.421,0.967 281.171,1.172 279.833 C 1.377 278.495,1.746 275.780,1.993 273.800 C 2.240 271.820,2.599 269.390,2.791 268.400 C 2.982 267.410,3.344 265.430,3.594 264.000 C 3.844 262.570,4.209 260.770,4.405 260.000 C 4.601 259.230,5.145 256.980,5.613 255.000 C 6.081 253.020,6.611 250.950,6.791 250.400 C 6.971 249.850,7.423 248.320,7.796 247.000 C 9.372 241.423,13.232 230.770,15.695 225.200 C 16.761 222.789,23.033 210.111,23.907 208.600 C 40.229 180.383,60.459 158.984,86.839 142.033 C 89.171 140.534,92.141 138.727,93.439 138.016 C 94.738 137.305,95.980 136.578,96.200 136.400 C 99.908 133.398,125.260 122.713,134.300 120.341 C 135.015 120.153,136.185 119.832,136.900 119.628 C 140.281 118.659,144.754 117.499,146.200 117.216 C 147.080 117.044,149.240 116.609,151.000 116.250 C 157.262 114.971,161.341 114.345,168.200 113.609 C 179.030 112.448,203.568 111.957,203.636 112.900 C 203.656 113.175,203.845 112.770,204.057 112.000 C 204.694 109.682,209.116 100.310,209.687 100.067 C 209.859 99.993,210.000 99.760,210.000 99.549 C 210.000 99.084,213.466 93.875,215.874 90.721 C 218.668 87.062,225.595 80.258,228.828 77.998 C 229.582 77.470,230.290 76.926,230.400 76.789 C 231.264 75.712,237.823 71.781,242.728 69.401 C 248.825 66.442,253.738 64.881,262.600 63.085 C 267.263 62.140,315.756 62.281,317.808 63.246 C 320.367 64.449,322.521 66.579,323.971 69.341 L 325.200 71.681 325.200 89.041 C 325.200 99.814,325.345 106.400,325.582 106.400 C 327.071 106.400,334.688 100.944,338.945 96.828 C 355.228 81.085,360.492 58.681,353.004 37.000 C 350.550 29.893,345.867 22.655,339.805 16.598 C 333.088 9.887,325.954 5.475,317.574 2.849 C 315.278 2.130,312.860 1.358,312.200 1.134 C 311.540 0.910,310.550 0.615,310.000 0.478 C 308.717 0.158,89.061 0.044,85.600 0.362 M203.067 113.867 C 202.920 114.013,202.811 114.508,202.825 114.967 C 202.849 115.733,202.882 115.723,203.234 114.842 C 203.626 113.863,203.544 113.389,203.067 113.867 M201.449 119.815 C 201.312 120.173,201.221 120.946,201.246 121.533 C 201.280 122.332,201.370 122.198,201.604 121.000 C 201.935 119.300,201.862 118.740,201.449 119.815 M321.375 121.700 L 320.200 123.000 321.500 121.825 C 322.215 121.179,322.800 120.594,322.800 120.525 C 322.800 120.216,322.470 120.488,321.375 121.700 M200.649 123.415 C 200.512 123.773,200.424 124.726,200.453 125.533 C 200.501 126.844,200.538 126.787,200.795 125.000 C 201.103 122.871,201.055 122.358,200.649 123.415 M272.400 125.600 C 271.867 125.945,271.867 125.988,272.400 125.988 C 272.730 125.988,273.270 125.813,273.600 125.600 C 274.133 125.255,274.133 125.212,273.600 125.212 C 273.270 125.212,272.730 125.387,272.400 125.600 M199.790 158.200 C 199.790 174.260,199.839 180.772,199.900 172.671 C 199.960 164.569,199.960 151.429,199.900 143.471 C 199.839 135.512,199.790 142.140,199.790 158.200 M263.029 135.029 C 262.881 135.615,262.851 136.184,262.961 136.294 C 263.071 136.404,263.281 136.015,263.429 135.429 C 263.576 134.842,263.606 134.273,263.496 134.163 C 263.386 134.053,263.176 134.442,263.029 135.029 M158.645 187.528 C 158.533 187.708,158.973 187.777,159.621 187.682 C 160.270 187.587,160.800 187.440,160.800 187.355 C 160.800 187.050,158.843 187.207,158.645 187.528 M311.633 187.344 C 312.105 187.750,314.043 187.993,313.810 187.616 C 313.668 187.387,313.083 187.200,312.510 187.200 C 311.936 187.200,311.542 187.265,311.633 187.344 M153.178 191.100 L 151.800 192.600 153.300 191.222 C 154.125 190.463,154.800 189.788,154.800 189.722 C 154.800 189.416,154.462 189.704,153.178 191.100 M318.665 190.804 C 319.361 191.572,320.324 192.965,320.805 193.900 C 321.697 195.632,322.184 196.166,321.717 194.900 C 321.228 193.575,319.694 191.398,318.548 190.404 C 317.480 189.477,317.488 189.505,318.665 190.804 M151.021 193.824 C 150.652 194.388,150.406 195.001,150.475 195.186 C 150.544 195.371,150.911 194.910,151.292 194.162 C 152.109 192.553,151.968 192.378,151.021 193.824 M149.787 218.800 C 149.787 231.010,149.838 236.005,149.900 229.900 C 149.962 223.795,149.962 213.805,149.900 207.700 C 149.838 201.595,149.787 206.590,149.787 218.800 M322.493 200.000 C 322.493 200.770,322.575 201.085,322.676 200.700 C 322.776 200.315,322.776 199.685,322.676 199.300 C 322.575 198.915,322.493 199.230,322.493 200.000 M150.432 242.321 C 150.414 242.608,150.850 243.505,151.400 244.314 C 151.950 245.123,152.400 245.637,152.400 245.455 C 152.400 245.272,152.066 244.646,151.657 244.062 C 151.248 243.478,150.813 242.730,150.689 242.400 C 150.536 241.994,150.453 241.968,150.432 242.321 M158.662 250.100 C 158.764 250.265,168.016 250.400,179.223 250.400 L 199.598 250.400 199.701 325.200 L 199.803 400.000 199.802 325.100 L 199.800 250.200 179.138 250.000 C 167.774 249.890,158.560 249.935,158.662 250.100 M272.700 250.300 C 278.255 250.362,287.345 250.362,292.900 250.300 C 298.455 250.237,293.910 250.186,282.800 250.186 C 271.690 250.186,267.145 250.237,272.700 250.300 " stroke="none" fill="#537cd4" fill-rule="evenodd"></path><path id="path3" d="M264.800 62.800 C 264.008 63.054,263.967 63.120,264.600 63.120 C 265.040 63.120,265.850 62.976,266.400 62.800 C 267.192 62.546,267.233 62.480,266.600 62.480 C 266.160 62.480,265.350 62.624,264.800 62.800 M221.978 83.900 L 220.600 85.400 222.100 84.022 C 223.496 82.738,223.784 82.400,223.478 82.400 C 223.412 82.400,222.737 83.075,221.978 83.900 M217.375 88.900 L 216.200 90.200 217.500 89.025 C 218.215 88.379,218.800 87.794,218.800 87.725 C 218.800 87.416,218.470 87.688,217.375 88.900 M321.178 121.500 L 319.800 123.000 321.300 121.622 C 322.696 120.338,322.984 120.000,322.678 120.000 C 322.612 120.000,321.937 120.675,321.178 121.500 M265.978 129.100 L 264.600 130.600 266.100 129.222 C 267.496 127.938,267.784 127.600,267.478 127.600 C 267.412 127.600,266.737 128.275,265.978 129.100 M262.596 162.000 L 262.600 187.400 287.000 187.405 L 311.400 187.409 287.103 187.302 L 262.806 187.194 262.699 161.897 L 262.591 136.600 262.596 162.000 M170.272 187.500 C 175.592 187.563,184.412 187.563,189.872 187.500 C 195.333 187.437,190.980 187.385,180.200 187.385 C 169.420 187.385,164.953 187.437,170.272 187.500 M153.381 191.300 L 151.800 193.000 153.500 191.419 C 154.435 190.549,155.200 189.784,155.200 189.719 C 155.200 189.416,154.852 189.719,153.381 191.300 M318.400 191.000 C 319.146 191.770,319.847 192.400,319.957 192.400 C 320.067 192.400,319.546 191.770,318.800 191.000 C 318.054 190.230,317.353 189.600,317.243 189.600 C 317.133 189.600,317.654 190.230,318.400 191.000 M322.120 200.000 C 322.120 201.210,322.195 201.705,322.287 201.100 C 322.378 200.495,322.378 199.505,322.287 198.900 C 322.195 198.295,322.120 198.790,322.120 200.000 M153.600 246.600 C 154.346 247.370,155.047 248.000,155.157 248.000 C 155.267 248.000,154.746 247.370,154.000 246.600 C 153.254 245.830,152.553 245.200,152.443 245.200 C 152.333 245.200,152.854 245.830,153.600 246.600 M262.596 325.200 C 262.596 366.450,262.643 383.325,262.700 362.700 C 262.757 342.075,262.757 308.325,262.700 287.700 C 262.643 267.075,262.596 283.950,262.596 325.200 " stroke="none" fill="#829ed5" fill-rule="evenodd"></path><path id="path4" d="M266.474 62.740 C 265.964 62.883,276.596 62.945,290.099 62.878 C 314.275 62.757,314.686 62.768,316.914 63.602 C 319.624 64.616,322.198 67.004,323.600 69.803 L 324.600 71.800 324.814 93.000 L 325.028 114.200 325.014 93.000 L 325.000 71.800 324.092 69.905 C 322.484 66.547,319.801 64.106,316.400 62.906 C 314.896 62.376,268.323 62.221,266.474 62.740 M261.000 63.597 C 260.340 63.775,259.080 64.052,258.200 64.212 C 257.320 64.372,256.780 64.568,257.000 64.648 C 257.220 64.728,259.110 64.450,261.200 64.030 C 263.290 63.611,264.370 63.268,263.600 63.270 C 262.830 63.271,261.660 63.418,261.000 63.597 M254.400 65.200 C 253.605 65.714,254.604 65.714,255.800 65.200 L 256.600 64.856 255.800 64.834 C 255.360 64.822,254.730 64.987,254.400 65.200 M251.800 66.000 C 251.508 66.473,251.899 66.473,253.000 66.000 C 253.771 65.669,253.769 65.655,252.924 65.628 C 252.442 65.613,251.936 65.780,251.800 66.000 M248.400 67.158 C 247.410 67.551,246.259 67.996,245.843 68.146 C 245.426 68.296,245.166 68.499,245.264 68.598 C 245.363 68.696,246.784 68.248,248.422 67.602 C 250.060 66.956,251.130 66.431,250.800 66.436 C 250.470 66.440,249.390 66.765,248.400 67.158 M240.659 70.645 C 238.711 71.638,237.183 72.517,237.265 72.598 C 237.400 72.733,244.374 69.360,244.763 68.970 C 245.298 68.435,243.777 69.056,240.659 70.645 M233.196 75.064 C 231.328 76.309,229.710 77.435,229.600 77.566 C 229.490 77.697,228.680 78.336,227.800 78.986 C 224.330 81.549,214.837 91.600,215.887 91.600 C 216.074 91.600,216.521 91.105,216.880 90.500 C 218.728 87.385,228.557 78.517,234.500 74.602 C 236.506 73.281,237.092 72.800,236.696 72.800 C 236.639 72.800,235.064 73.819,233.196 75.064 M212.313 96.107 C 209.484 100.415,205.370 108.303,205.753 108.686 C 205.876 108.810,206.174 108.391,206.414 107.755 C 207.612 104.585,210.554 99.273,213.424 95.100 C 214.597 93.395,215.431 92.003,215.278 92.007 C 215.125 92.011,213.791 93.856,212.313 96.107 M204.611 110.915 C 204.211 111.962,203.992 112.925,204.123 113.056 C 204.254 113.187,204.485 112.778,204.636 112.147 C 204.787 111.516,205.083 110.781,205.293 110.513 C 205.503 110.246,205.600 109.799,205.507 109.520 C 205.414 109.241,205.011 109.869,204.611 110.915 M203.400 114.800 C 203.250 115.273,203.217 115.750,203.327 115.860 C 203.437 115.970,203.650 115.673,203.800 115.200 C 203.950 114.727,203.983 114.250,203.873 114.140 C 203.763 114.030,203.550 114.327,203.400 114.800 M323.857 116.857 C 322.867 119.645,319.712 122.796,316.786 123.919 C 315.584 124.381,314.880 124.768,315.221 124.779 C 318.299 124.882,325.525 117.576,324.724 115.172 C 324.653 114.958,324.262 115.716,323.857 116.857 M202.629 117.429 C 202.481 118.015,202.438 118.572,202.532 118.666 C 202.627 118.760,202.824 118.358,202.971 117.771 C 203.119 117.185,203.162 116.628,203.068 116.534 C 202.973 116.440,202.776 116.842,202.629 117.429 M201.800 120.800 C 201.648 121.491,201.607 122.141,201.709 122.242 C 201.811 122.344,202.009 121.853,202.150 121.150 C 202.483 119.483,202.160 119.160,201.800 120.800 M201.000 124.800 C 200.846 125.710,200.804 126.538,200.907 126.640 C 201.010 126.743,201.213 126.077,201.360 125.160 C 201.507 124.243,201.548 123.415,201.453 123.320 C 201.358 123.224,201.154 123.890,201.000 124.800 M271.738 125.106 C 271.319 125.372,293.950 125.360,308.400 125.087 C 311.590 125.026,304.750 124.940,293.200 124.895 C 281.650 124.849,271.992 124.944,271.738 125.106 M268.378 126.744 C 267.400 127.373,266.152 128.408,265.604 129.044 C 264.671 130.127,264.696 130.119,266.004 128.927 C 266.772 128.228,268.210 127.195,269.200 126.632 C 270.190 126.070,270.810 125.607,270.578 125.605 C 270.346 125.602,269.356 126.115,268.378 126.744 M200.272 129.804 C 200.127 130.682,200.032 132.570,200.059 134.000 C 200.107 136.443,200.131 136.371,200.451 132.800 C 200.812 128.776,200.714 127.131,200.272 129.804 M262.649 134.215 C 262.512 134.573,262.418 135.256,262.441 135.733 C 262.467 136.281,262.603 136.086,262.810 135.203 C 263.160 133.716,263.065 133.133,262.649 134.215 M159.000 188.000 C 158.496 188.217,158.422 188.344,158.800 188.344 C 159.130 188.344,159.760 188.189,160.200 188.000 C 160.704 187.783,160.778 187.656,160.400 187.656 C 160.070 187.656,159.440 187.811,159.000 188.000 M312.000 188.000 C 312.330 188.213,312.960 188.378,313.400 188.366 L 314.200 188.344 313.400 188.000 C 312.204 187.486,311.205 187.486,312.000 188.000 M155.893 189.414 C 155.072 189.972,154.400 190.525,154.400 190.642 C 154.400 190.759,154.895 190.510,155.500 190.088 C 156.105 189.667,156.960 189.120,157.400 188.873 C 157.840 188.626,158.017 188.419,157.793 188.412 C 157.569 188.405,156.714 188.856,155.893 189.414 M317.366 190.476 C 318.218 191.178,319.429 192.563,320.057 193.555 C 321.263 195.457,321.591 195.517,320.631 193.659 C 320.054 192.544,316.670 189.200,316.118 189.200 C 315.953 189.200,316.514 189.774,317.366 190.476 M150.249 197.015 C 150.112 197.373,150.018 198.146,150.040 198.733 C 150.073 199.591,150.152 199.495,150.446 198.240 C 150.822 196.639,150.695 195.853,150.249 197.015 M321.693 197.600 C 321.693 198.370,321.775 198.685,321.876 198.300 C 321.976 197.915,321.976 197.285,321.876 196.900 C 321.775 196.515,321.693 196.830,321.693 197.600 M321.693 202.400 C 321.693 203.170,321.775 203.485,321.876 203.100 C 321.976 202.715,321.976 202.085,321.876 201.700 C 321.775 201.315,321.693 201.630,321.693 202.400 M320.049 210.600 C 320.016 211.040,319.896 211.850,319.783 212.400 L 319.577 213.400 320.006 212.419 C 320.242 211.879,320.361 211.069,320.272 210.619 C 320.113 209.821,320.107 209.821,320.049 210.600 M318.250 219.650 C 318.109 220.353,318.069 221.002,318.159 221.092 C 318.250 221.183,318.448 220.691,318.600 220.000 C 318.752 219.309,318.793 218.659,318.691 218.558 C 318.589 218.456,318.391 218.947,318.250 219.650 M317.450 223.650 C 317.309 224.353,317.269 225.002,317.359 225.092 C 317.450 225.183,317.648 224.691,317.800 224.000 C 317.952 223.309,317.993 222.659,317.891 222.558 C 317.789 222.456,317.591 222.947,317.450 223.650 M315.800 231.600 C 315.648 232.291,315.614 232.947,315.724 233.057 C 315.834 233.167,316.048 232.691,316.200 232.000 C 316.352 231.309,316.386 230.653,316.276 230.543 C 316.166 230.433,315.952 230.909,315.800 231.600 M315.000 235.600 C 314.848 236.291,314.807 236.941,314.909 237.042 C 315.011 237.144,315.209 236.653,315.350 235.950 C 315.491 235.247,315.531 234.598,315.441 234.508 C 315.350 234.417,315.152 234.909,315.000 235.600 M150.006 239.033 C 150.009 239.675,150.196 240.470,150.421 240.800 C 150.714 241.230,150.754 240.946,150.562 239.800 C 150.230 237.816,149.998 237.496,150.006 239.033 M314.229 239.429 C 314.081 240.015,314.038 240.572,314.132 240.666 C 314.227 240.760,314.424 240.358,314.571 239.771 C 314.719 239.185,314.762 238.628,314.668 238.534 C 314.573 238.440,314.376 238.842,314.229 239.429 M151.604 243.709 C 151.597 244.197,154.861 247.607,155.775 248.067 C 156.229 248.296,155.933 247.918,155.117 247.227 C 154.302 246.536,153.179 245.392,152.622 244.685 C 152.065 243.978,151.607 243.539,151.604 243.709 M310.778 246.300 L 309.400 247.800 310.900 246.422 C 312.296 245.138,312.584 244.800,312.278 244.800 C 312.212 244.800,311.537 245.475,310.778 246.300 M159.000 249.600 C 159.440 249.789,160.160 249.944,160.600 249.944 L 161.400 249.944 160.600 249.600 C 160.160 249.411,159.440 249.256,159.000 249.256 L 158.200 249.256 159.000 249.600 M303.800 249.600 C 302.693 249.882,302.677 249.909,303.600 249.947 C 304.150 249.969,304.870 249.813,305.200 249.600 C 305.881 249.160,305.529 249.160,303.800 249.600 " stroke="none" fill="#94ace0" fill-rule="evenodd"></path></g></svg>