<svg id="svg" version="1.1" xmlns="http://www.w3.org/2000/svg" xmlns:xlink="http://www.w3.org/1999/xlink" width="400" height="400" viewBox="0, 0, 400,400"><g id="svgg"><path id="path0" d="M180.600 0.430 C 175.363 0.944,168.127 1.962,163.800 2.791 C 158.062 3.891,155.419 4.451,152.400 5.207 C 151.410 5.455,150.013 5.755,149.296 5.873 C 148.579 5.992,147.894 6.249,147.773 6.444 C 147.652 6.640,146.944 6.800,146.200 6.800 C 145.456 6.800,144.736 6.980,144.600 7.200 C 144.464 7.420,143.924 7.600,143.400 7.600 C 142.876 7.600,142.336 7.780,142.200 8.000 C 142.064 8.220,141.434 8.400,140.800 8.400 C 140.166 8.400,139.536 8.580,139.400 8.800 C 139.264 9.020,138.724 9.200,138.200 9.200 C 137.676 9.200,137.136 9.380,137.000 9.600 C 136.864 9.820,136.324 10.000,135.800 10.000 C 135.276 10.000,134.736 10.180,134.600 10.400 C 134.464 10.620,133.943 10.800,133.443 10.800 C 132.943 10.800,132.411 10.922,132.262 11.071 C 132.113 11.220,130.868 11.739,129.496 12.224 C 126.848 13.160,121.531 15.250,119.200 16.271 C 116.730 17.353,104.607 23.339,104.400 23.579 C 104.290 23.707,103.300 24.256,102.200 24.800 C 101.100 25.344,100.110 25.882,100.000 25.995 C 99.618 26.387,97.396 27.651,96.700 27.871 C 96.315 27.993,96.000 28.252,96.000 28.447 C 96.000 28.641,95.814 28.800,95.586 28.800 C 95.170 28.800,82.374 37.056,82.000 37.566 C 81.890 37.716,81.170 38.271,80.400 38.800 C 79.630 39.329,78.730 40.049,78.400 40.400 C 78.070 40.751,77.170 41.471,76.400 42.000 C 75.630 42.529,74.910 43.065,74.800 43.191 C 74.690 43.317,73.790 44.046,72.800 44.809 C 71.810 45.573,70.624 46.558,70.165 46.999 C 69.706 47.440,68.451 48.520,67.376 49.400 C 64.756 51.545,52.003 64.330,49.006 67.816 C 47.689 69.347,46.514 70.690,46.395 70.800 C 46.277 70.910,45.559 71.810,44.800 72.800 C 44.041 73.790,43.317 74.690,43.191 74.800 C 43.065 74.910,42.524 75.630,41.989 76.400 C 41.455 77.170,40.622 78.200,40.138 78.689 C 39.654 79.178,38.936 80.123,38.543 80.789 C 38.149 81.455,37.686 82.000,37.514 82.000 C 37.341 82.000,37.200 82.255,37.200 82.567 C 37.200 82.878,37.040 83.193,36.844 83.267 C 36.382 83.440,28.800 95.056,28.800 95.592 C 28.800 95.816,28.641 96.000,28.447 96.000 C 28.252 96.000,27.993 96.315,27.871 96.700 C 27.651 97.396,26.387 99.618,25.995 100.000 C 25.882 100.110,25.344 101.100,24.800 102.200 C 24.256 103.300,23.708 104.290,23.583 104.400 C 23.336 104.616,17.280 116.899,16.286 119.200 C 15.072 122.008,12.461 128.641,11.955 130.200 C 11.670 131.080,11.293 131.971,11.118 132.180 C 10.943 132.389,10.800 132.963,10.800 133.456 C 10.800 133.949,10.620 134.464,10.400 134.600 C 10.180 134.736,10.000 135.276,10.000 135.800 C 10.000 136.324,9.820 136.864,9.600 137.000 C 9.380 137.136,9.200 137.676,9.200 138.200 C 9.200 138.724,9.020 139.264,8.800 139.400 C 8.580 139.536,8.400 140.166,8.400 140.800 C 8.400 141.434,8.220 142.064,8.000 142.200 C 7.780 142.336,7.600 142.876,7.600 143.400 C 7.600 143.924,7.420 144.464,7.200 144.600 C 6.980 144.736,6.800 145.456,6.800 146.200 C 6.800 146.944,6.620 147.664,6.400 147.800 C 6.180 147.936,6.000 148.566,6.000 149.200 C 6.000 149.834,5.820 150.464,5.600 150.600 C 5.380 150.736,5.200 151.431,5.200 152.144 C 5.200 152.857,5.038 153.611,4.841 153.820 C 4.644 154.029,4.385 154.920,4.267 155.800 C 4.149 156.680,3.860 158.300,3.626 159.400 C 2.257 165.827,1.110 173.682,0.380 181.623 C -0.143 187.314,0.109 215.306,0.723 219.800 C 1.884 228.287,2.566 232.219,3.184 234.000 C 3.452 234.770,3.743 235.635,3.831 235.922 C 3.925 236.228,5.313 235.073,7.195 233.122 C 8.957 231.295,10.917 229.284,11.552 228.653 C 12.504 227.707,17.088 223.126,28.706 211.506 C 29.366 210.846,33.056 207.156,36.906 203.306 C 40.756 199.456,44.446 195.766,45.106 195.106 C 45.766 194.446,49.432 190.780,53.253 186.959 C 57.074 183.139,60.764 179.449,61.453 178.759 C 71.256 168.957,77.724 162.488,78.653 161.557 C 79.284 160.924,82.898 157.356,86.685 153.627 C 93.235 147.177,94.800 145.165,94.800 143.197 C 94.800 142.478,95.246 140.833,97.074 134.800 C 102.502 116.886,120.556 99.849,138.200 95.992 C 146.496 94.178,145.884 94.547,153.601 86.711 C 157.344 82.910,160.924 79.284,161.557 78.653 C 162.482 77.731,169.259 70.954,178.760 61.453 C 179.390 60.822,183.056 57.156,186.906 53.306 C 190.756 49.456,194.446 45.766,195.106 45.106 C 195.766 44.446,199.456 40.756,203.306 36.906 C 207.156 33.056,210.846 29.366,211.506 28.706 C 223.058 17.155,227.610 12.602,228.600 11.605 C 229.260 10.941,231.295 8.957,233.122 7.195 C 236.374 4.058,236.516 3.728,234.731 3.458 C 234.439 3.414,233.930 3.208,233.600 3.001 C 233.270 2.794,232.100 2.508,231.000 2.366 C 229.900 2.225,226.930 1.814,224.400 1.454 C 221.870 1.094,218.450 0.619,216.800 0.397 C 213.350 -0.066,185.384 -0.041,180.600 0.430 " stroke="none" fill="#fcc432" fill-rule="evenodd"></path><path id="path1" d="M160.600 0.296 C 159.500 0.380,158.429 0.617,158.220 0.824 C 158.011 1.031,157.066 1.200,156.120 1.200 C 155.174 1.200,154.400 1.380,154.400 1.600 C 154.400 1.820,153.691 2.000,152.824 2.000 C 151.957 2.000,151.136 2.180,151.000 2.400 C 150.864 2.620,150.144 2.800,149.400 2.800 C 148.656 2.800,147.936 2.980,147.800 3.200 C 147.664 3.420,146.944 3.600,146.200 3.600 C 145.456 3.600,144.736 3.780,144.600 4.000 C 144.464 4.220,143.823 4.400,143.176 4.400 C 142.529 4.400,142.000 4.580,142.000 4.800 C 142.000 5.020,141.460 5.200,140.800 5.200 C 140.140 5.200,139.600 5.380,139.600 5.600 C 139.600 5.820,139.071 6.000,138.424 6.000 C 137.777 6.000,137.136 6.180,137.000 6.400 C 136.864 6.620,136.234 6.800,135.600 6.800 C 134.966 6.800,134.336 6.980,134.200 7.200 C 134.064 7.420,133.513 7.600,132.976 7.600 C 132.439 7.600,132.000 7.780,132.000 8.000 C 132.000 8.220,131.580 8.400,131.067 8.400 C 130.553 8.400,130.024 8.509,129.890 8.643 C 129.757 8.777,128.121 9.399,126.257 10.026 C 124.392 10.652,121.996 11.551,120.933 12.022 C 119.870 12.494,118.640 13.021,118.200 13.193 C 117.055 13.640,108.790 17.575,107.600 18.239 C 107.050 18.546,105.610 19.286,104.400 19.884 C 103.190 20.481,102.140 21.112,102.067 21.285 C 101.993 21.458,101.588 21.600,101.167 21.600 C 100.745 21.600,100.400 21.746,100.400 21.925 C 100.400 22.104,99.770 22.498,99.000 22.800 C 98.230 23.102,97.600 23.475,97.600 23.628 C 97.600 23.781,97.285 24.010,96.900 24.136 C 96.515 24.263,95.480 24.819,94.600 25.373 C 93.720 25.928,92.335 26.744,91.523 27.187 C 90.032 28.000,87.338 29.713,86.600 30.316 C 86.380 30.495,84.784 31.597,83.054 32.764 C 79.999 34.825,78.875 35.664,77.784 36.700 C 77.494 36.975,77.153 37.200,77.025 37.200 C 76.897 37.200,76.228 37.740,75.537 38.400 C 74.846 39.060,74.122 39.600,73.927 39.600 C 73.733 39.600,72.943 40.230,72.173 41.000 C 71.403 41.770,70.627 42.400,70.448 42.400 C 70.269 42.400,69.739 42.733,69.270 43.140 C 68.801 43.546,67.398 44.761,66.152 45.840 C 63.560 48.083,48.206 63.353,47.000 64.887 C 46.560 65.446,45.345 66.840,44.300 67.983 C 43.255 69.126,42.400 70.222,42.400 70.418 C 42.400 70.613,41.770 71.403,41.000 72.173 C 40.230 72.943,39.600 73.733,39.600 73.927 C 39.600 74.122,39.060 74.846,38.400 75.537 C 37.740 76.228,37.200 76.882,37.200 76.992 C 37.200 77.194,36.209 78.458,35.300 79.416 C 35.025 79.706,34.800 80.121,34.800 80.338 C 34.800 80.555,34.644 80.793,34.453 80.867 C 34.262 80.940,32.464 83.520,30.458 86.600 C 28.451 89.680,26.568 92.560,26.273 93.000 C 25.979 93.440,25.483 94.385,25.171 95.100 C 24.860 95.815,24.469 96.400,24.302 96.400 C 24.136 96.400,24.000 96.670,24.000 97.000 C 24.000 97.330,23.854 97.600,23.675 97.600 C 23.496 97.600,23.102 98.230,22.800 99.000 C 22.498 99.770,22.104 100.400,21.925 100.400 C 21.746 100.400,21.600 100.745,21.600 101.167 C 21.600 101.588,21.458 101.993,21.285 102.067 C 21.112 102.140,20.481 103.190,19.884 104.400 C 19.286 105.610,18.543 107.050,18.234 107.600 C 17.570 108.781,14.336 115.592,13.486 117.600 C 13.160 118.370,12.512 119.853,12.047 120.896 C 11.581 121.938,11.200 123.053,11.200 123.372 C 11.200 123.691,11.051 124.045,10.869 124.157 C 10.687 124.270,10.207 125.495,9.801 126.881 C 9.396 128.266,8.915 129.571,8.732 129.780 C 8.550 129.989,8.400 130.563,8.400 131.056 C 8.400 131.549,8.220 132.064,8.000 132.200 C 7.780 132.336,7.600 132.876,7.600 133.400 C 7.600 133.924,7.420 134.464,7.200 134.600 C 6.980 134.736,6.800 135.276,6.800 135.800 C 6.800 136.324,6.620 136.864,6.400 137.000 C 6.180 137.136,6.000 137.777,6.000 138.424 C 6.000 139.071,5.820 139.600,5.600 139.600 C 5.380 139.600,5.200 140.129,5.200 140.776 C 5.200 141.423,5.020 142.064,4.800 142.200 C 4.580 142.336,4.400 142.966,4.400 143.600 C 4.400 144.234,4.220 144.864,4.000 145.000 C 3.780 145.136,3.600 145.766,3.600 146.400 C 3.600 147.034,3.420 147.664,3.200 147.800 C 2.980 147.936,2.800 148.656,2.800 149.400 C 2.800 150.144,2.620 150.864,2.400 151.000 C 2.180 151.136,2.000 151.946,2.000 152.800 C 2.000 153.654,1.820 154.464,1.600 154.600 C 1.380 154.736,1.200 155.632,1.200 156.590 C 1.200 157.612,0.997 158.401,0.709 158.497 C 0.337 158.621,0.202 161.656,0.154 171.030 C 0.111 179.315,0.195 182.277,0.408 180.000 C 0.731 176.529,1.287 172.241,2.015 167.600 C 2.240 166.170,2.518 164.280,2.634 163.400 C 2.750 162.520,3.004 161.440,3.198 161.000 C 3.392 160.560,3.643 159.570,3.756 158.800 C 4.171 155.975,4.462 154.582,4.800 153.800 C 4.990 153.360,5.256 152.370,5.392 151.600 C 5.527 150.830,5.739 149.613,5.863 148.896 C 5.987 148.179,6.249 147.494,6.444 147.373 C 6.640 147.252,6.800 146.634,6.800 146.000 C 6.800 145.366,6.980 144.736,7.200 144.600 C 7.420 144.464,7.600 143.834,7.600 143.200 C 7.600 142.566,7.780 141.936,8.000 141.800 C 8.220 141.664,8.400 141.124,8.400 140.600 C 8.400 140.076,8.580 139.536,8.800 139.400 C 9.020 139.264,9.200 138.801,9.200 138.371 C 9.200 137.941,9.358 137.277,9.551 136.895 C 9.744 136.513,10.117 135.480,10.379 134.600 C 11.197 131.861,13.754 125.027,15.061 122.088 C 15.577 120.927,16.000 119.888,16.000 119.780 C 16.000 119.180,23.820 103.370,24.398 102.800 C 24.510 102.690,24.871 102.060,25.200 101.400 C 25.529 100.740,25.889 100.110,25.999 100.000 C 26.110 99.890,26.442 99.370,26.738 98.845 C 27.033 98.320,27.621 97.274,28.044 96.521 C 29.095 94.651,37.227 82.249,37.566 82.000 C 37.716 81.890,38.271 81.170,38.800 80.400 C 39.329 79.630,40.049 78.730,40.400 78.400 C 40.751 78.070,41.471 77.170,42.000 76.400 C 42.529 75.630,43.061 74.910,43.183 74.800 C 43.305 74.690,43.896 73.941,44.496 73.135 C 45.097 72.329,45.816 71.427,46.094 71.130 C 46.372 70.834,47.680 69.334,49.000 67.797 C 51.923 64.393,64.552 51.761,67.793 49.000 C 69.084 47.900,70.334 46.817,70.570 46.594 C 70.807 46.371,71.810 45.566,72.800 44.805 C 73.790 44.043,74.690 43.317,74.800 43.191 C 74.910 43.065,75.630 42.529,76.400 42.000 C 77.170 41.471,78.070 40.751,78.400 40.400 C 78.730 40.049,79.630 39.329,80.400 38.800 C 81.170 38.271,81.890 37.716,82.000 37.566 C 82.249 37.227,94.651 29.095,96.521 28.044 C 97.274 27.621,98.320 27.033,98.845 26.738 C 99.370 26.442,99.890 26.110,100.000 25.999 C 100.110 25.889,100.740 25.529,101.400 25.200 C 102.060 24.871,102.690 24.510,102.800 24.398 C 103.351 23.839,114.416 18.370,119.200 16.292 C 119.970 15.958,121.410 15.333,122.400 14.904 C 125.236 13.674,132.139 11.114,134.600 10.379 C 135.480 10.117,136.513 9.744,136.895 9.551 C 137.277 9.358,137.941 9.200,138.371 9.200 C 138.801 9.200,139.264 9.020,139.400 8.800 C 139.536 8.580,140.177 8.400,140.824 8.400 C 141.471 8.400,142.000 8.220,142.000 8.000 C 142.000 7.780,142.529 7.600,143.176 7.600 C 143.823 7.600,144.464 7.420,144.600 7.200 C 144.736 6.980,145.366 6.800,146.000 6.800 C 146.634 6.800,147.264 6.620,147.400 6.400 C 147.536 6.180,148.256 6.000,149.000 6.000 C 149.744 6.000,150.464 5.820,150.600 5.600 C 150.736 5.380,151.456 5.200,152.200 5.200 C 152.944 5.200,153.652 5.039,153.774 4.842 C 153.895 4.645,154.671 4.382,155.497 4.258 C 156.324 4.133,157.720 3.923,158.600 3.791 C 159.480 3.658,160.560 3.391,161.000 3.196 C 161.440 3.001,162.610 2.751,163.600 2.640 C 164.590 2.529,166.480 2.249,167.800 2.019 C 171.491 1.374,176.251 0.755,180.000 0.431 C 182.359 0.228,180.217 0.139,173.000 0.141 C 167.280 0.143,161.700 0.213,160.600 0.296 M220.000 0.415 C 223.772 0.792,228.448 1.395,232.400 2.015 C 233.830 2.240,235.720 2.518,236.600 2.634 C 237.480 2.750,238.560 3.004,239.000 3.198 C 239.440 3.392,240.520 3.658,241.400 3.791 C 242.280 3.923,243.676 4.133,244.503 4.258 C 245.329 4.382,246.105 4.645,246.226 4.842 C 246.348 5.039,247.146 5.200,248.000 5.200 C 248.854 5.200,249.664 5.380,249.800 5.600 C 249.936 5.820,250.566 6.000,251.200 6.000 C 251.834 6.000,252.464 6.180,252.600 6.400 C 252.736 6.620,253.366 6.800,254.000 6.800 C 254.634 6.800,255.264 6.980,255.400 7.200 C 255.536 7.420,256.166 7.600,256.800 7.600 C 257.434 7.600,258.064 7.780,258.200 8.000 C 258.336 8.220,258.876 8.400,259.400 8.400 C 259.924 8.400,260.464 8.580,260.600 8.800 C 260.736 9.020,261.341 9.200,261.944 9.200 C 262.547 9.200,263.211 9.343,263.420 9.518 C 263.629 9.693,264.520 10.065,265.400 10.345 C 266.280 10.624,267.360 11.012,267.800 11.206 C 268.240 11.401,269.410 11.822,270.400 12.144 C 272.194 12.726,275.881 14.109,277.400 14.770 C 277.840 14.962,278.920 15.426,279.800 15.802 C 286.640 18.725,295.241 23.043,295.533 23.700 C 295.607 23.865,296.012 24.000,296.433 24.000 C 296.855 24.000,297.200 24.180,297.200 24.400 C 297.200 24.620,297.560 24.800,298.000 24.800 C 298.440 24.800,298.800 24.946,298.800 25.125 C 298.800 25.304,299.430 25.698,300.200 26.000 C 300.970 26.302,301.600 26.696,301.600 26.875 C 301.600 27.054,301.797 27.200,302.038 27.200 C 302.279 27.200,302.964 27.547,303.560 27.972 C 304.296 28.496,304.830 28.626,305.222 28.378 C 305.621 28.126,305.645 28.010,305.300 28.006 C 304.455 27.996,304.215 27.898,303.800 27.393 C 303.580 27.125,302.770 26.567,302.000 26.153 C 301.230 25.739,300.510 25.310,300.400 25.200 C 300.004 24.804,297.785 23.546,297.100 23.329 C 296.715 23.207,296.400 22.948,296.400 22.753 C 296.400 22.559,296.040 22.400,295.600 22.400 C 295.160 22.400,294.800 22.220,294.800 22.000 C 294.800 21.780,294.455 21.600,294.033 21.600 C 293.612 21.600,293.207 21.465,293.133 21.300 C 293.060 21.135,292.190 20.569,291.200 20.043 C 285.488 17.007,283.431 16.000,282.945 16.000 C 282.645 16.000,282.400 15.820,282.400 15.600 C 282.400 15.380,282.170 15.200,281.890 15.200 C 281.609 15.200,280.304 14.666,278.990 14.013 C 277.675 13.359,276.321 12.819,275.980 12.813 C 275.639 12.806,275.189 12.643,274.980 12.452 C 274.600 12.103,268.418 9.713,265.400 8.748 C 264.520 8.467,263.629 8.093,263.420 7.918 C 263.211 7.743,262.637 7.600,262.144 7.600 C 261.651 7.600,261.136 7.420,261.000 7.200 C 260.864 6.980,260.234 6.800,259.600 6.800 C 258.966 6.800,258.336 6.620,258.200 6.400 C 258.064 6.180,257.423 6.000,256.776 6.000 C 256.129 6.000,255.600 5.820,255.600 5.600 C 255.600 5.380,255.161 5.200,254.624 5.200 C 254.087 5.200,253.536 5.020,253.400 4.800 C 253.264 4.580,252.634 4.400,252.000 4.400 C 251.366 4.400,250.736 4.220,250.600 4.000 C 250.464 3.780,249.744 3.600,249.000 3.600 C 248.256 3.600,247.536 3.420,247.400 3.200 C 247.264 2.980,246.544 2.800,245.800 2.800 C 245.056 2.800,244.336 2.620,244.200 2.400 C 244.064 2.180,243.243 2.000,242.376 2.000 C 241.509 2.000,240.800 1.820,240.800 1.600 C 240.800 1.380,240.026 1.200,239.080 1.200 C 238.134 1.200,237.143 0.983,236.878 0.718 C 236.531 0.371,233.598 0.213,226.498 0.155 C 219.073 0.096,217.450 0.161,220.000 0.415 M305.897 28.636 C 305.555 28.978,306.594 30.000,307.283 30.000 C 307.580 30.000,308.083 30.360,308.400 30.800 C 308.717 31.240,309.297 31.600,309.688 31.600 C 310.080 31.600,310.400 31.780,310.400 32.000 C 310.400 32.220,310.580 32.400,310.800 32.400 C 311.570 32.400,311.190 31.730,310.100 31.168 C 309.495 30.855,308.762 30.375,308.471 30.100 C 308.181 29.825,307.695 29.600,307.391 29.600 C 307.088 29.600,306.686 29.325,306.498 28.989 C 306.310 28.653,306.039 28.494,305.897 28.636 M311.794 33.094 C 312.231 33.204,312.882 33.634,313.241 34.047 C 313.600 34.461,314.107 34.800,314.368 34.800 C 314.628 34.800,314.356 34.350,313.762 33.800 C 313.169 33.250,312.304 32.821,311.842 32.846 C 311.041 32.891,311.038 32.902,311.794 33.094 M315.200 35.025 C 315.200 35.325,316.273 36.400,316.571 36.400 C 317.080 36.400,316.751 35.762,316.000 35.293 C 315.560 35.018,315.200 34.898,315.200 35.025 M147.000 95.049 C 139.196 95.971,131.168 98.366,125.846 101.361 C 124.941 101.870,123.480 102.693,122.600 103.188 C 112.136 109.085,101.802 121.998,97.781 134.200 C 96.914 136.834,96.219 139.571,95.548 143.000 C 94.738 147.139,94.738 252.861,95.548 257.000 C 100.411 281.853,118.578 300.100,142.800 304.460 C 147.245 305.260,253.781 305.256,257.600 304.455 C 282.253 299.287,299.785 281.683,304.461 257.400 C 305.258 253.261,305.255 147.207,304.457 142.800 C 300.360 120.153,283.186 101.756,261.200 96.464 C 260.210 96.226,258.500 95.810,257.400 95.540 C 255.546 95.084,150.649 94.618,147.000 95.049 M246.400 113.799 C 267.322 117.397,282.316 132.317,286.196 153.400 C 287.074 158.168,287.074 241.832,286.196 246.600 C 282.315 267.688,267.688 282.315,246.600 286.196 C 241.832 287.074,158.168 287.074,153.400 286.196 C 132.341 282.320,117.393 267.298,113.799 246.400 C 113.310 243.561,113.214 235.908,113.214 200.000 C 113.215 153.388,113.109 155.956,115.430 146.294 C 115.576 145.686,115.854 145.090,116.048 144.970 C 116.241 144.851,116.400 144.482,116.400 144.151 C 116.400 141.537,122.662 131.777,127.267 127.213 C 131.947 122.575,141.557 116.400,144.095 116.400 C 144.395 116.400,144.811 116.251,145.020 116.070 C 145.624 115.544,148.460 114.810,154.400 113.640 C 157.753 112.980,242.489 113.126,246.400 113.799 M252.113 131.244 C 243.790 134.443,241.524 145.799,247.921 152.245 C 255.788 160.172,269.600 154.409,269.600 143.200 C 269.600 134.178,260.560 127.997,252.113 131.244 M195.200 145.840 C 173.254 147.740,153.100 165.083,148.066 186.400 C 147.832 187.390,147.410 189.190,147.128 190.400 C 145.703 196.506,146.652 209.426,149.065 216.800 C 152.782 228.155,160.220 238.228,169.670 244.703 C 172.993 246.980,180.217 250.791,181.220 250.797 C 181.561 250.798,182.011 250.959,182.220 251.153 C 182.650 251.552,186.833 252.704,189.718 253.217 C 190.773 253.404,191.984 253.668,192.410 253.803 C 193.749 254.228,205.018 254.093,207.464 253.623 C 235.051 248.320,253.293 226.755,253.332 199.400 C 253.340 193.469,253.191 192.120,251.934 186.800 C 245.902 161.259,221.403 143.572,195.200 145.840 M209.880 165.952 C 244.893 177.478,243.179 225.096,207.400 234.855 C 204.659 235.602,194.026 235.594,191.600 234.842 C 186.899 233.386,186.054 233.081,184.000 232.101 C 175.907 228.237,170.041 221.770,165.952 212.200 C 163.517 206.502,163.379 195.803,165.652 189.000 C 171.827 170.522,191.933 160.044,209.880 165.952 M0.157 226.573 C 0.216 233.927,0.364 236.588,0.719 236.706 C 0.996 236.799,1.200 237.607,1.200 238.610 C 1.200 239.568,1.380 240.464,1.600 240.600 C 1.820 240.736,2.000 241.546,2.000 242.400 C 2.000 243.254,2.180 244.064,2.400 244.200 C 2.620 244.336,2.800 245.067,2.800 245.824 C 2.800 246.581,2.980 247.200,3.200 247.200 C 3.420 247.200,3.600 247.819,3.600 248.576 C 3.600 249.333,3.780 250.064,4.000 250.200 C 4.220 250.336,4.400 251.067,4.400 251.824 C 4.400 252.581,4.580 253.200,4.800 253.200 C 5.020 253.200,5.200 253.740,5.200 254.400 C 5.200 255.060,5.380 255.600,5.600 255.600 C 5.820 255.600,6.000 256.129,6.000 256.776 C 6.000 257.423,6.180 258.064,6.400 258.200 C 6.620 258.336,6.800 258.876,6.800 259.400 C 6.800 259.924,6.980 260.464,7.200 260.600 C 7.420 260.736,7.600 261.276,7.600 261.800 C 7.600 262.324,7.780 262.864,8.000 263.000 C 8.220 263.136,8.400 263.687,8.400 264.224 C 8.400 264.761,8.580 265.200,8.800 265.200 C 9.020 265.200,9.200 265.605,9.200 266.100 C 9.201 267.037,10.419 270.552,10.915 271.048 C 11.072 271.205,11.200 271.575,11.200 271.871 C 11.200 272.167,11.581 273.262,12.047 274.304 C 12.512 275.347,13.160 276.830,13.487 277.600 C 14.035 278.891,15.639 282.362,17.738 286.800 C 18.206 287.790,18.696 288.690,18.827 288.800 C 18.957 288.910,19.319 289.585,19.630 290.300 C 19.941 291.015,20.331 291.600,20.498 291.600 C 20.664 291.600,20.800 291.960,20.800 292.400 C 20.800 292.840,20.980 293.200,21.200 293.200 C 21.420 293.200,21.600 293.545,21.600 293.967 C 21.600 294.388,21.735 294.793,21.900 294.867 C 22.276 295.034,23.575 297.164,23.871 298.100 C 23.993 298.485,24.252 298.800,24.447 298.800 C 24.641 298.800,24.800 299.171,24.800 299.624 C 24.800 300.077,24.980 300.336,25.200 300.200 C 25.420 300.064,25.600 300.221,25.600 300.550 C 25.600 301.423,28.143 305.371,28.335 304.796 C 28.424 304.527,28.310 304.191,28.080 304.050 C 27.851 303.908,27.540 303.299,27.388 302.696 C 27.237 302.093,26.852 301.600,26.533 301.600 C 26.214 301.600,26.048 301.445,26.165 301.256 C 26.418 300.848,25.532 298.808,25.100 298.803 C 24.935 298.801,24.800 298.440,24.800 298.000 C 24.800 297.560,24.620 297.200,24.400 297.200 C 24.180 297.200,24.000 296.930,24.000 296.600 C 24.000 296.270,23.820 296.000,23.600 296.000 C 23.380 296.000,23.200 295.640,23.200 295.200 C 23.200 294.760,23.020 294.400,22.800 294.400 C 22.580 294.400,22.400 294.040,22.400 293.600 C 22.400 293.160,22.220 292.800,22.000 292.800 C 21.780 292.800,21.600 292.530,21.600 292.200 C 21.600 291.870,21.420 291.600,21.200 291.600 C 20.980 291.600,20.800 291.355,20.800 291.056 C 20.800 290.757,20.277 289.452,19.638 288.156 C 17.924 284.680,16.000 280.484,16.000 280.221 C 16.000 280.095,15.648 279.228,15.219 278.296 C 14.236 276.162,12.903 272.740,12.144 270.400 C 11.822 269.410,11.401 268.240,11.206 267.800 C 11.012 267.360,10.639 266.280,10.377 265.400 C 10.116 264.520,9.744 263.487,9.551 263.105 C 9.358 262.723,9.200 262.059,9.200 261.629 C 9.200 261.199,9.020 260.736,8.800 260.600 C 8.580 260.464,8.400 259.823,8.400 259.176 C 8.400 258.529,8.220 258.000,8.000 258.000 C 7.780 258.000,7.600 257.471,7.600 256.824 C 7.600 256.177,7.420 255.536,7.200 255.400 C 6.980 255.264,6.800 254.634,6.800 254.000 C 6.800 253.366,6.640 252.748,6.444 252.627 C 6.249 252.506,5.987 251.821,5.863 251.104 C 5.739 250.387,5.527 249.170,5.392 248.400 C 5.256 247.630,4.990 246.640,4.800 246.200 C 4.610 245.760,4.345 244.770,4.212 244.000 C 3.973 242.621,3.565 240.528,2.769 236.600 C 1.966 232.637,0.990 225.759,0.415 220.000 C 0.161 217.458,0.096 219.116,0.157 226.573 M29.073 306.655 C 29.453 307.235,29.831 307.506,29.914 307.258 C 29.997 307.010,29.793 306.536,29.461 306.204 C 28.516 305.259,28.313 305.495,29.073 306.655 M30.000 308.217 C 30.000 308.336,30.360 308.820,30.800 309.292 C 31.256 309.781,31.600 309.934,31.600 309.647 C 31.600 309.370,31.343 308.886,31.029 308.571 C 30.442 307.985,30.000 307.833,30.000 308.217 M31.600 310.600 C 31.600 310.710,31.960 311.160,32.400 311.600 C 32.840 312.040,33.200 312.207,33.200 311.971 C 33.200 311.736,32.943 311.286,32.629 310.971 C 32.052 310.395,31.600 310.232,31.600 310.600 " stroke="none" fill="#fbfafa" fill-rule="evenodd"></path><path id="path2" d="M303.493 38.417 C 300.362 41.487,296.923 44.878,295.852 45.951 C 294.780 47.025,291.113 50.693,287.703 54.103 C 284.293 57.513,280.626 61.180,279.555 62.252 C 277.031 64.775,264.879 76.928,262.355 79.452 C 261.283 80.523,257.633 84.215,254.244 87.656 L 248.082 93.911 251.341 94.342 C 257.445 95.149,262.653 96.236,265.000 97.193 C 265.440 97.372,266.430 97.740,267.200 98.009 C 284.270 103.977,299.631 121.139,303.529 138.600 C 303.775 139.700,304.195 141.410,304.463 142.400 C 304.826 143.740,305.008 155.697,305.175 189.200 C 305.309 215.933,305.481 229.081,305.600 221.589 L 305.800 208.977 307.200 207.481 C 308.360 206.241,311.884 202.696,324.090 190.490 C 324.530 190.050,328.220 186.360,332.290 182.290 C 336.360 178.220,340.050 174.530,340.490 174.090 C 340.930 173.650,344.597 169.985,348.639 165.945 C 357.608 156.980,356.862 157.727,365.892 148.692 C 369.961 144.621,373.650 140.930,374.090 140.490 C 374.531 140.051,377.473 137.069,380.629 133.865 C 384.982 129.446,386.565 128.078,387.186 128.197 C 387.886 128.332,387.944 128.243,387.588 127.577 C 387.359 127.150,386.998 126.800,386.786 126.800 C 386.574 126.800,386.400 126.609,386.400 126.376 C 386.400 126.143,386.580 126.064,386.800 126.200 C 387.020 126.336,387.200 126.257,387.200 126.024 C 387.200 125.791,387.020 125.600,386.800 125.600 C 386.580 125.600,386.400 125.255,386.400 124.833 C 386.400 124.412,386.222 124.007,386.003 123.933 C 385.785 123.860,385.566 123.305,385.516 122.700 C 385.466 122.095,385.285 121.600,385.113 121.600 C 384.941 121.600,384.800 121.240,384.800 120.800 C 384.800 120.360,384.620 120.000,384.400 120.000 C 384.180 120.000,384.000 119.651,384.000 119.224 C 384.000 118.797,383.820 118.336,383.600 118.200 C 383.380 118.064,383.200 117.603,383.200 117.176 C 383.200 116.749,383.020 116.400,382.800 116.400 C 382.580 116.400,382.400 115.950,382.400 115.400 C 382.400 114.850,382.220 114.400,382.000 114.400 C 381.780 114.400,381.600 114.040,381.600 113.600 C 381.600 113.160,381.420 112.800,381.200 112.800 C 380.980 112.800,380.800 112.440,380.800 112.000 C 380.800 111.560,380.620 111.200,380.400 111.200 C 380.180 111.200,380.000 110.829,380.000 110.376 C 380.000 109.923,379.820 109.664,379.600 109.800 C 379.380 109.936,379.200 109.677,379.200 109.224 C 379.200 108.771,379.020 108.400,378.800 108.400 C 378.580 108.400,378.400 108.040,378.400 107.600 C 378.400 107.160,378.220 106.800,378.000 106.800 C 377.780 106.800,377.600 106.440,377.600 106.000 C 377.600 105.560,377.420 105.200,377.200 105.200 C 376.980 105.200,376.800 104.840,376.800 104.400 C 376.800 103.960,376.620 103.600,376.400 103.600 C 376.180 103.600,376.000 103.255,376.000 102.833 C 376.000 102.412,375.865 102.007,375.700 101.933 C 375.535 101.860,374.680 100.405,373.801 98.700 C 372.921 96.995,372.088 95.600,371.949 95.600 C 371.811 95.600,371.473 95.060,371.200 94.400 C 370.927 93.740,370.545 93.200,370.351 93.200 C 370.158 93.200,370.000 92.996,370.000 92.747 C 370.000 92.498,369.685 92.003,369.300 91.647 C 368.915 91.291,368.541 90.730,368.470 90.400 C 368.398 90.070,368.173 89.740,367.970 89.667 C 367.766 89.593,367.600 89.228,367.600 88.855 C 367.600 88.482,367.240 87.917,366.800 87.600 C 366.360 87.283,366.000 86.775,366.000 86.472 C 366.000 86.169,365.460 85.417,364.800 84.800 C 364.140 84.183,363.600 83.431,363.600 83.128 C 363.600 82.825,363.240 82.317,362.800 82.000 C 362.360 81.683,362.000 81.175,362.000 80.872 C 362.000 80.569,361.460 79.817,360.800 79.200 C 360.140 78.583,359.600 77.958,359.600 77.811 C 359.600 77.663,359.375 77.292,359.100 76.985 C 358.340 76.138,357.871 75.531,356.791 74.000 C 356.248 73.230,355.128 71.903,354.302 71.052 C 353.476 70.200,352.800 69.353,352.800 69.170 C 352.800 68.269,332.308 47.821,330.361 46.779 C 329.878 46.520,328.888 45.744,328.163 45.054 C 325.926 42.927,325.600 42.701,325.600 43.273 C 325.600 43.551,325.320 43.378,324.977 42.889 C 324.635 42.400,324.050 41.997,323.677 41.994 C 323.094 41.989,323.083 41.934,323.600 41.600 C 324.068 41.298,323.957 41.211,323.100 41.206 C 322.495 41.203,322.000 41.027,322.000 40.816 C 322.000 40.173,320.298 38.800,319.501 38.800 C 319.089 38.800,318.864 38.620,319.000 38.400 C 319.136 38.180,318.967 38.000,318.624 38.000 C 318.281 38.000,318.000 37.820,318.000 37.600 C 318.000 37.380,317.838 37.200,317.641 37.200 C 317.443 37.200,316.117 36.492,314.692 35.627 C 313.268 34.762,311.446 33.779,310.644 33.444 L 309.186 32.835 303.493 38.417 M227.600 113.964 C 227.600 114.201,224.608 117.344,220.952 120.949 C 212.712 129.072,211.755 130.029,204.197 137.703 C 200.838 141.113,197.845 143.990,197.545 144.097 C 196.362 144.517,197.706 144.863,201.857 145.207 C 208.875 145.788,214.054 146.881,218.800 148.781 C 235.409 155.433,247.818 169.675,251.927 186.800 C 253.179 192.018,253.340 193.461,253.332 199.400 C 253.295 225.062,236.277 246.815,211.600 252.741 C 186.441 258.784,159.303 244.438,150.039 220.200 C 149.535 218.880,148.980 217.440,148.807 217.000 C 148.502 216.227,148.005 214.435,147.228 211.300 C 146.607 208.798,146.035 204.408,145.811 200.433 C 145.571 196.165,145.460 195.891,144.493 197.172 C 144.112 197.678,141.010 200.862,137.600 204.249 C 129.158 212.633,128.436 213.357,120.949 220.952 C 117.344 224.608,114.201 227.600,113.964 227.600 C 113.419 227.600,113.733 244.719,114.342 248.200 C 117.369 265.494,131.697 280.900,148.800 285.251 C 154.777 286.772,155.325 286.788,198.400 286.704 C 221.390 286.660,237.545 286.568,234.300 286.501 C 231.055 286.434,228.400 286.289,228.400 286.179 C 228.400 286.069,230.965 283.462,234.100 280.384 C 237.235 277.306,240.135 274.451,240.545 274.039 C 240.955 273.627,244.597 269.985,248.639 265.945 C 257.608 256.980,256.862 257.727,265.892 248.692 C 269.961 244.621,273.627 240.955,274.039 240.545 C 274.451 240.135,277.306 237.235,280.384 234.100 C 283.462 230.965,286.070 228.400,286.179 228.400 C 286.289 228.400,286.434 231.145,286.501 234.500 C 286.568 237.855,286.659 221.700,286.704 198.600 C 286.788 155.314,286.772 154.779,285.251 148.800 C 280.897 131.683,265.507 117.371,248.200 114.342 C 244.719 113.733,227.600 113.419,227.600 113.964 M262.406 131.547 C 267.872 134.365,271.157 141.744,269.144 146.681 C 267.848 149.858,267.376 150.644,265.854 152.156 C 257.589 160.365,244.290 154.859,244.220 143.200 C 244.163 133.569,254.046 127.235,262.406 131.547 M194.400 165.061 C 183.518 166.715,173.041 174.357,168.081 184.256 C 158.555 203.270,167.817 226.839,187.435 233.506 C 192.378 235.185,193.758 235.400,199.600 235.400 C 224.089 235.400,241.055 212.090,233.387 188.977 C 227.982 172.685,211.353 162.484,194.400 165.061 M286.501 243.000 C 286.505 243.880,286.587 244.193,286.683 243.695 C 286.779 243.198,286.775 242.478,286.675 242.095 C 286.575 241.713,286.496 242.120,286.501 243.000 M87.703 254.188 C 84.350 257.495,80.683 261.123,79.555 262.252 C 75.815 265.991,64.232 277.574,62.252 279.555 C 61.180 280.626,57.536 284.270,54.155 287.652 C 50.773 291.033,47.105 294.700,46.002 295.800 C 44.900 296.900,41.664 300.185,38.810 303.100 C 35.957 306.015,33.451 308.400,33.243 308.400 C 32.696 308.400,33.438 310.836,34.610 312.885 C 35.149 313.828,35.593 314.926,35.595 315.324 C 35.598 315.722,35.744 315.958,35.920 315.849 C 36.096 315.741,36.457 316.000,36.723 316.426 C 37.065 316.972,37.076 317.200,36.761 317.200 C 36.516 317.200,36.874 317.722,37.558 318.360 C 38.241 318.999,38.800 319.732,38.800 319.989 C 38.800 320.521,39.992 321.834,40.016 321.329 C 40.024 321.148,40.296 321.611,40.620 322.357 C 41.196 323.684,42.598 325.200,43.249 325.200 C 43.428 325.200,43.486 325.433,43.376 325.717 C 43.267 326.002,44.083 327.204,45.189 328.388 C 46.295 329.572,47.200 330.681,47.200 330.852 C 47.200 331.730,66.186 350.654,69.265 352.846 C 69.999 353.369,71.297 354.472,72.148 355.298 C 73.000 356.124,73.863 356.800,74.066 356.800 C 74.270 356.800,74.870 357.205,75.399 357.700 C 76.937 359.138,77.544 359.600,77.895 359.600 C 78.076 359.600,78.483 359.960,78.800 360.400 C 79.117 360.840,79.607 361.200,79.888 361.200 C 80.170 361.200,80.400 361.380,80.400 361.600 C 80.400 361.820,80.630 362.000,80.912 362.000 C 81.193 362.000,81.683 362.360,82.000 362.800 C 82.317 363.240,82.825 363.600,83.128 363.600 C 83.431 363.600,84.158 364.095,84.743 364.700 C 85.329 365.305,86.065 365.856,86.378 365.925 C 86.692 365.994,87.252 366.399,87.622 366.825 C 87.991 367.251,88.505 367.600,88.764 367.600 C 89.022 367.600,89.620 367.960,90.092 368.400 C 90.564 368.840,91.187 369.200,91.475 369.200 C 91.764 369.200,92.000 369.380,92.000 369.600 C 92.000 369.820,92.270 370.000,92.600 370.000 C 92.930 370.000,93.200 370.180,93.200 370.400 C 93.200 370.620,93.470 370.800,93.800 370.800 C 94.130 370.800,94.400 370.980,94.400 371.200 C 94.400 371.420,94.655 371.600,94.967 371.600 C 95.278 371.600,95.593 371.735,95.667 371.900 C 95.847 372.305,97.788 373.438,100.100 374.487 C 101.145 374.962,102.000 375.496,102.000 375.675 C 102.000 375.854,102.360 376.000,102.800 376.000 C 103.240 376.000,103.600 376.180,103.600 376.400 C 103.600 376.620,103.960 376.800,104.400 376.800 C 104.840 376.800,105.200 376.980,105.200 377.200 C 105.200 377.420,105.560 377.600,106.000 377.600 C 106.440 377.600,106.800 377.780,106.800 378.000 C 106.800 378.220,107.160 378.400,107.600 378.400 C 108.040 378.400,108.400 378.580,108.400 378.800 C 108.400 379.020,108.771 379.200,109.224 379.200 C 109.677 379.200,109.936 379.380,109.800 379.600 C 109.664 379.820,109.923 380.000,110.376 380.000 C 110.829 380.000,111.200 380.180,111.200 380.400 C 111.200 380.620,111.560 380.800,112.000 380.800 C 112.440 380.800,112.800 380.980,112.800 381.200 C 112.800 381.420,113.160 381.600,113.600 381.600 C 114.040 381.600,114.400 381.780,114.400 382.000 C 114.400 382.220,114.850 382.400,115.400 382.400 C 115.950 382.400,116.400 382.580,116.400 382.800 C 116.400 383.020,116.749 383.200,117.176 383.200 C 117.603 383.200,118.064 383.380,118.200 383.600 C 118.336 383.820,118.797 384.000,119.224 384.000 C 119.651 384.000,120.000 384.180,120.000 384.400 C 120.000 384.620,120.238 384.800,120.529 384.800 C 120.819 384.800,121.760 385.142,122.619 385.559 C 123.477 385.977,124.666 386.258,125.259 386.182 C 126.061 386.081,126.508 386.306,127.001 387.058 C 127.366 387.614,127.770 387.963,127.900 387.833 C 128.030 387.703,128.575 387.885,129.111 388.236 C 129.760 388.661,130.219 388.741,130.485 388.475 C 130.752 388.208,130.638 388.096,130.143 388.137 C 129.611 388.182,129.409 387.942,129.432 387.295 C 129.457 386.593,129.300 386.441,128.732 386.621 C 127.448 387.029,127.882 386.523,133.900 380.594 C 137.145 377.397,140.135 374.446,140.545 374.036 C 140.955 373.626,144.621 369.961,148.692 365.892 C 157.717 356.871,156.871 357.717,165.892 348.692 C 169.961 344.621,173.650 340.930,174.090 340.490 C 176.359 338.221,187.389 327.191,190.490 324.090 C 202.696 311.885,206.241 308.360,207.481 307.200 L 208.977 305.800 222.989 305.600 C 231.802 305.474,219.786 305.317,190.600 305.176 C 155.963 305.008,143.744 304.828,142.400 304.464 C 141.410 304.195,139.700 303.775,138.600 303.529 C 121.110 299.624,104.328 284.597,98.026 267.200 C 97.747 266.430,97.378 265.440,97.205 265.000 C 97.033 264.560,96.678 263.390,96.418 262.400 C 96.159 261.410,95.778 260.047,95.573 259.372 C 95.368 258.696,95.200 257.629,95.200 257.000 C 95.200 256.371,95.025 255.304,94.810 254.628 C 94.596 253.953,94.281 252.225,94.110 250.788 L 93.800 248.177 87.703 254.188 M242.500 286.676 C 242.885 286.776,243.515 286.776,243.900 286.676 C 244.285 286.575,243.970 286.493,243.200 286.493 C 242.430 286.493,242.115 286.575,242.500 286.676 " stroke="none" fill="#ee3882" fill-rule="evenodd"></path><path id="path3" d="M387.396 128.007 C 387.258 128.230,386.985 128.314,386.789 128.193 C 386.593 128.072,383.861 130.585,380.717 133.777 C 377.573 136.969,374.640 139.941,374.200 140.381 C 373.760 140.821,370.046 144.536,365.947 148.637 C 356.859 157.729,357.717 156.871,348.692 165.892 C 344.621 169.961,340.930 173.650,340.490 174.090 C 340.050 174.530,336.360 178.220,332.290 182.290 C 328.220 186.360,324.530 190.050,324.090 190.490 C 311.881 202.699,308.363 206.238,307.218 207.464 L 305.835 208.943 305.544 226.371 C 305.057 255.473,304.956 256.889,302.861 264.000 C 297.495 282.208,282.160 297.541,264.000 302.855 C 256.602 305.020,254.959 305.143,227.976 305.543 L 208.953 305.825 207.469 307.213 C 206.235 308.366,202.736 311.845,190.490 324.090 C 189.990 324.591,186.300 328.281,182.290 332.290 C 178.281 336.300,174.640 339.940,174.200 340.380 C 173.760 340.820,170.046 344.536,165.947 348.637 C 156.860 357.728,157.728 356.860,148.637 365.947 C 144.536 370.046,140.821 373.760,140.381 374.200 C 139.941 374.640,136.975 377.567,133.791 380.703 C 127.882 386.523,127.450 387.029,128.732 386.621 C 129.300 386.441,129.457 386.593,129.432 387.295 C 129.410 387.920,129.615 388.183,130.096 388.145 C 130.491 388.114,130.679 388.273,130.530 388.513 C 130.366 388.779,130.522 388.839,130.950 388.675 C 131.371 388.513,131.717 388.639,131.858 389.007 C 131.983 389.333,132.506 389.600,133.019 389.600 C 133.533 389.600,134.074 389.796,134.222 390.035 C 134.369 390.274,134.823 390.383,135.230 390.276 C 135.638 390.170,136.170 390.323,136.413 390.616 C 136.657 390.909,137.833 391.272,139.028 391.421 C 140.223 391.570,141.200 391.851,141.200 392.046 C 141.200 392.241,141.740 392.400,142.400 392.400 C 143.060 392.400,143.600 392.580,143.600 392.800 C 143.600 393.020,144.331 393.200,145.224 393.200 C 146.204 393.200,146.749 393.358,146.600 393.600 C 146.451 393.841,146.988 394.000,147.953 394.000 C 148.833 394.000,149.664 394.180,149.800 394.400 C 149.936 394.620,150.656 394.800,151.400 394.800 C 152.144 394.800,152.864 394.980,153.000 395.200 C 153.136 395.420,153.856 395.600,154.600 395.600 C 155.344 395.600,156.064 395.780,156.200 396.000 C 156.336 396.220,157.247 396.400,158.224 396.400 C 159.201 396.400,160.000 396.580,160.000 396.800 C 160.000 397.020,160.900 397.200,162.000 397.200 C 163.100 397.200,164.000 397.364,164.000 397.564 C 164.000 397.914,165.691 398.148,171.799 398.646 C 173.339 398.771,174.727 399.082,174.885 399.337 C 175.316 400.035,224.867 399.999,225.100 399.300 C 225.212 398.965,226.171 398.800,228.010 398.800 C 229.518 398.800,230.864 398.620,231.000 398.400 C 231.136 398.180,232.317 398.000,233.624 398.000 C 234.941 398.000,236.000 397.822,236.000 397.600 C 236.000 397.380,236.889 397.200,237.976 397.200 C 239.063 397.200,240.064 397.020,240.200 396.800 C 240.336 396.580,241.247 396.400,242.224 396.400 C 243.201 396.400,244.000 396.220,244.000 396.000 C 244.000 395.780,244.720 395.600,245.600 395.600 C 246.480 395.600,247.200 395.420,247.200 395.200 C 247.200 394.980,247.920 394.800,248.800 394.800 C 249.680 394.800,250.400 394.620,250.400 394.400 C 250.400 394.180,251.019 394.000,251.776 394.000 C 252.533 394.000,253.264 393.820,253.400 393.600 C 253.536 393.380,254.267 393.200,255.024 393.200 C 255.781 393.200,256.400 393.020,256.400 392.800 C 256.400 392.580,256.940 392.400,257.600 392.400 C 258.260 392.400,258.800 392.241,258.800 392.046 C 258.800 391.851,259.787 391.569,260.994 391.418 C 262.200 391.267,263.291 390.977,263.417 390.772 C 263.544 390.567,264.076 390.400,264.600 390.400 C 265.124 390.400,265.664 390.220,265.800 390.000 C 265.936 389.780,266.476 389.600,267.000 389.600 C 267.524 389.600,268.064 389.420,268.200 389.200 C 268.336 388.980,268.715 388.800,269.043 388.800 C 269.371 388.800,270.384 388.440,271.294 388.000 C 272.205 387.560,273.153 387.200,273.400 387.200 C 273.647 387.200,274.595 386.840,275.506 386.400 C 276.416 385.960,277.440 385.600,277.781 385.600 C 278.121 385.600,278.400 385.420,278.400 385.200 C 278.400 384.980,278.760 384.800,279.200 384.800 C 279.640 384.800,280.000 384.620,280.000 384.400 C 280.000 384.180,280.355 384.000,280.788 384.000 C 281.221 384.000,282.217 383.640,283.000 383.200 C 283.783 382.760,284.689 382.400,285.012 382.400 C 285.335 382.400,285.600 382.220,285.600 382.000 C 285.600 381.780,285.960 381.600,286.400 381.600 C 286.840 381.600,287.200 381.420,287.200 381.200 C 287.200 380.980,287.560 380.800,288.000 380.800 C 288.440 380.800,288.800 380.654,288.800 380.475 C 288.800 380.296,289.430 379.902,290.200 379.600 C 290.970 379.298,291.600 378.904,291.600 378.725 C 291.600 378.546,291.960 378.400,292.400 378.400 C 292.840 378.400,293.200 378.220,293.200 378.000 C 293.200 377.780,293.560 377.600,294.000 377.600 C 294.440 377.600,294.800 377.420,294.800 377.200 C 294.800 376.980,295.160 376.800,295.600 376.800 C 296.040 376.800,296.400 376.620,296.400 376.400 C 296.400 376.180,296.760 376.000,297.200 376.000 C 297.640 376.000,298.000 375.855,298.000 375.677 C 298.000 375.499,298.765 375.023,299.700 374.619 C 300.635 374.215,302.120 373.415,303.000 372.842 C 303.880 372.269,305.095 371.545,305.700 371.232 C 306.305 370.920,306.800 370.515,306.800 370.332 C 306.800 370.150,306.987 370.000,307.216 370.000 C 307.690 370.000,310.131 368.355,310.333 367.900 C 310.407 367.735,310.772 367.600,311.145 367.600 C 311.518 367.600,312.083 367.240,312.400 366.800 C 312.717 366.360,313.209 366.000,313.492 366.000 C 313.775 366.000,314.572 365.460,315.263 364.800 C 315.954 364.140,316.722 363.600,316.971 363.600 C 317.220 363.600,317.683 363.240,318.000 362.800 C 318.317 362.360,318.780 362.000,319.029 362.000 C 319.278 362.000,320.046 361.460,320.737 360.800 C 321.428 360.140,322.092 359.600,322.213 359.600 C 322.464 359.600,323.125 359.082,324.890 357.500 C 325.566 356.895,326.266 356.400,326.446 356.400 C 326.626 356.400,327.364 355.812,328.087 355.093 C 328.809 354.375,329.992 353.368,330.715 352.855 C 333.909 350.594,350.594 333.909,352.855 330.715 C 353.368 329.992,354.375 328.809,355.093 328.087 C 355.812 327.364,356.400 326.626,356.400 326.446 C 356.400 326.266,356.895 325.566,357.500 324.890 C 359.082 323.125,359.600 322.464,359.600 322.213 C 359.600 322.092,360.140 321.428,360.800 320.737 C 361.460 320.046,362.000 319.278,362.000 319.029 C 362.000 318.780,362.360 318.317,362.800 318.000 C 363.240 317.683,363.600 317.220,363.600 316.971 C 363.600 316.722,364.140 315.954,364.800 315.263 C 365.460 314.572,366.000 313.775,366.000 313.492 C 366.000 313.209,366.360 312.717,366.800 312.400 C 367.240 312.083,367.600 311.586,367.600 311.295 C 367.600 311.004,367.931 310.411,368.336 309.977 C 368.741 309.542,369.326 308.695,369.636 308.093 C 369.946 307.492,370.515 306.651,370.900 306.225 C 371.285 305.798,371.600 305.272,371.600 305.056 C 371.600 304.840,371.849 304.379,372.153 304.031 C 372.457 303.684,373.304 302.230,374.035 300.800 C 374.766 299.370,375.507 298.140,375.682 298.067 C 375.857 297.993,376.000 297.588,376.000 297.167 C 376.000 296.745,376.180 296.400,376.400 296.400 C 376.620 296.400,376.800 296.040,376.800 295.600 C 376.800 295.160,376.980 294.800,377.200 294.800 C 377.420 294.800,377.600 294.440,377.600 294.000 C 377.600 293.560,377.780 293.200,378.000 293.200 C 378.220 293.200,378.400 292.840,378.400 292.400 C 378.400 291.960,378.546 291.600,378.725 291.600 C 378.904 291.600,379.298 290.970,379.600 290.200 C 379.902 289.430,380.296 288.800,380.475 288.800 C 380.654 288.800,380.800 288.440,380.800 288.000 C 380.800 287.560,380.980 287.200,381.200 287.200 C 381.420 287.200,381.600 286.840,381.600 286.400 C 381.600 285.960,381.780 285.600,382.000 285.600 C 382.220 285.600,382.400 285.335,382.400 285.012 C 382.400 284.689,382.760 283.783,383.200 283.000 C 383.640 282.217,384.000 281.221,384.000 280.788 C 384.000 280.355,384.180 280.000,384.400 280.000 C 384.620 280.000,384.800 279.640,384.800 279.200 C 384.800 278.760,384.980 278.400,385.200 278.400 C 385.420 278.400,385.600 278.057,385.600 277.638 C 385.600 277.219,385.986 276.094,386.457 275.138 C 387.481 273.060,387.786 272.306,388.455 270.200 C 388.735 269.320,389.107 268.429,389.282 268.220 C 389.457 268.011,389.600 267.437,389.600 266.944 C 389.600 266.451,389.780 265.936,390.000 265.800 C 390.220 265.664,390.400 265.124,390.400 264.600 C 390.400 264.076,390.567 263.544,390.772 263.417 C 390.977 263.291,391.267 262.200,391.418 260.994 C 391.569 259.787,391.851 258.800,392.046 258.800 C 392.241 258.800,392.400 258.260,392.400 257.600 C 392.400 256.940,392.580 256.400,392.800 256.400 C 393.020 256.400,393.200 255.781,393.200 255.024 C 393.200 254.267,393.380 253.536,393.600 253.400 C 393.820 253.264,394.000 252.533,394.000 251.776 C 394.000 251.019,394.180 250.400,394.400 250.400 C 394.620 250.400,394.800 249.680,394.800 248.800 C 394.800 247.920,394.980 247.200,395.200 247.200 C 395.420 247.200,395.600 246.480,395.600 245.600 C 395.600 244.720,395.780 244.000,396.000 244.000 C 396.220 244.000,396.400 243.100,396.400 242.000 C 396.400 240.900,396.580 240.000,396.800 240.000 C 397.020 240.000,397.200 239.201,397.200 238.224 C 397.200 237.247,397.380 236.336,397.600 236.200 C 397.820 236.064,398.000 234.894,398.000 233.600 C 398.000 232.306,398.180 231.136,398.400 231.000 C 398.620 230.864,398.800 229.518,398.800 228.010 C 398.800 226.171,398.965 225.212,399.300 225.100 C 400.014 224.862,400.030 176.179,399.317 174.761 C 399.051 174.232,398.741 172.720,398.628 171.400 C 398.219 166.611,397.919 164.593,397.563 164.220 C 397.363 164.011,397.200 162.976,397.200 161.920 C 397.200 160.864,397.020 160.000,396.800 160.000 C 396.580 160.000,396.400 159.100,396.400 158.000 C 396.400 156.900,396.220 156.000,396.000 156.000 C 395.780 156.000,395.600 155.381,395.600 154.624 C 395.600 153.867,395.420 153.136,395.200 153.000 C 394.980 152.864,394.800 152.043,394.800 151.176 C 394.800 150.309,394.620 149.600,394.400 149.600 C 394.180 149.600,394.000 148.880,394.000 148.000 C 394.000 147.120,393.820 146.400,393.600 146.400 C 393.380 146.400,393.200 145.871,393.200 145.224 C 393.200 144.577,393.020 143.936,392.800 143.800 C 392.580 143.664,392.400 143.023,392.400 142.376 C 392.400 141.729,392.220 141.200,392.000 141.200 C 391.780 141.200,391.600 140.660,391.600 140.000 C 391.600 139.340,391.436 138.800,391.235 138.800 C 391.035 138.800,390.920 138.351,390.980 137.803 C 391.040 137.255,390.855 136.612,390.568 136.374 C 390.282 136.136,390.141 135.699,390.254 135.403 C 390.368 135.107,390.162 134.408,389.796 133.850 C 389.430 133.292,389.248 132.646,389.391 132.415 C 389.534 132.184,389.381 131.891,389.051 131.764 C 388.721 131.637,388.536 131.312,388.640 131.041 C 388.744 130.769,388.562 130.032,388.235 129.402 C 387.908 128.773,387.732 128.109,387.844 127.929 C 387.956 127.748,387.957 127.600,387.847 127.600 C 387.737 127.600,387.534 127.783,387.396 128.007 M280.400 234.028 C 277.430 237.091,274.590 240.003,274.088 240.499 C 273.586 240.994,269.872 244.706,265.835 248.747 C 257.193 257.396,258.068 256.520,248.692 265.892 C 244.621 269.961,240.955 273.627,240.545 274.039 C 240.135 274.451,237.218 277.323,234.062 280.422 C 230.905 283.521,228.390 286.124,228.473 286.206 C 228.767 286.500,243.446 286.507,245.800 286.214 C 266.648 283.622,283.719 266.350,286.138 245.400 C 286.612 241.299,286.562 228.376,286.072 228.430 C 285.923 228.446,283.370 230.965,280.400 234.028 " stroke="none" fill="#931cb8" fill-rule="evenodd"></path><path id="path4" d="M219.000 0.657 C 219.880 0.752,222.490 1.118,224.800 1.471 C 227.110 1.824,229.900 2.227,231.000 2.368 C 232.100 2.509,233.270 2.794,233.600 3.001 C 233.930 3.208,234.439 3.414,234.731 3.458 C 236.516 3.728,236.374 4.058,233.122 7.195 C 231.295 8.957,229.284 10.917,228.653 11.552 C 227.710 12.502,223.048 17.166,211.559 28.653 C 210.929 29.284,207.263 32.950,203.413 36.800 C 199.563 40.650,195.849 44.364,195.159 45.053 C 194.470 45.742,190.756 49.456,186.906 53.306 C 183.056 57.156,179.342 60.870,178.653 61.560 C 168.894 71.319,162.489 77.724,161.557 78.653 C 160.924 79.284,157.344 82.910,153.601 86.711 C 145.884 94.547,146.496 94.178,138.200 95.992 C 131.812 97.388,120.653 103.166,115.400 107.797 C 106.431 115.704,99.980 125.210,97.074 134.800 C 95.246 140.833,94.800 142.478,94.800 143.197 C 94.800 145.165,93.235 147.177,86.685 153.627 C 82.898 157.356,79.284 160.924,78.653 161.557 C 77.727 162.485,71.141 169.072,61.506 178.706 C 60.846 179.366,57.156 183.056,53.306 186.906 C 49.456 190.756,45.766 194.446,45.106 195.106 C 44.446 195.766,40.756 199.456,36.906 203.306 C 33.056 207.156,29.366 210.846,28.706 211.506 C 17.088 223.126,12.504 227.707,11.552 228.653 C 10.917 229.284,8.957 231.295,7.195 233.122 C 5.313 235.073,3.925 236.228,3.831 235.922 C 3.743 235.635,3.452 234.770,3.184 234.000 C 2.554 232.187,1.593 226.610,0.804 220.200 L 0.460 217.400 0.606 220.400 C 0.853 225.441,1.901 232.590,3.598 240.800 C 3.802 241.790,4.079 243.230,4.212 244.000 C 4.345 244.770,4.610 245.760,4.800 246.200 C 4.990 246.640,5.256 247.630,5.392 248.400 C 5.527 249.170,5.739 250.387,5.863 251.104 C 5.987 251.821,6.249 252.506,6.444 252.627 C 6.640 252.748,6.800 253.366,6.800 254.000 C 6.800 254.634,6.980 255.264,7.200 255.400 C 7.420 255.536,7.600 256.177,7.600 256.824 C 7.600 257.471,7.780 258.000,8.000 258.000 C 8.220 258.000,8.400 258.529,8.400 259.176 C 8.400 259.823,8.580 260.464,8.800 260.600 C 9.020 260.736,9.200 261.199,9.200 261.629 C 9.200 262.059,9.358 262.723,9.551 263.105 C 9.744 263.487,10.116 264.520,10.377 265.400 C 10.639 266.280,11.012 267.360,11.206 267.800 C 11.401 268.240,11.822 269.410,12.144 270.400 C 12.903 272.740,14.236 276.162,15.219 278.296 C 15.648 279.228,16.000 280.095,16.000 280.221 C 16.000 280.484,17.924 284.680,19.638 288.156 C 20.277 289.452,20.800 290.757,20.800 291.056 C 20.800 291.355,20.980 291.600,21.200 291.600 C 21.420 291.600,21.600 291.870,21.600 292.200 C 21.600 292.530,21.780 292.800,22.000 292.800 C 22.220 292.800,22.400 293.160,22.400 293.600 C 22.400 294.040,22.580 294.400,22.800 294.400 C 23.020 294.400,23.200 294.760,23.200 295.200 C 23.200 295.640,23.380 296.000,23.600 296.000 C 23.820 296.000,24.000 296.270,24.000 296.600 C 24.000 296.930,24.180 297.200,24.400 297.200 C 24.620 297.200,24.800 297.560,24.800 298.000 C 24.800 298.440,25.001 298.800,25.247 298.800 C 25.494 298.800,25.601 299.151,25.488 299.586 C 25.366 300.052,25.469 300.337,25.741 300.286 C 25.993 300.239,26.175 300.515,26.144 300.900 C 26.114 301.285,26.325 301.600,26.613 301.600 C 26.901 301.600,27.255 302.140,27.400 302.800 C 27.545 303.460,27.829 304.000,28.032 304.000 C 28.234 304.000,28.400 304.320,28.400 304.712 C 28.400 305.103,28.760 305.683,29.200 306.000 C 29.640 306.317,30.000 306.857,30.000 307.200 C 30.000 307.543,30.360 308.083,30.800 308.400 C 31.240 308.717,31.600 309.257,31.600 309.600 C 31.600 309.943,31.960 310.483,32.400 310.800 C 32.840 311.117,33.200 311.682,33.200 312.055 C 33.200 312.428,33.366 312.793,33.570 312.867 C 33.773 312.940,33.998 313.266,34.070 313.590 C 34.241 314.366,35.176 315.357,35.465 315.068 C 35.590 314.944,35.225 314.007,34.656 312.988 C 33.427 310.791,32.692 308.400,33.243 308.400 C 33.451 308.400,35.957 306.015,38.810 303.100 C 41.664 300.185,44.877 296.923,45.951 295.852 C 47.025 294.780,50.693 291.113,54.103 287.703 C 57.513 284.293,61.203 280.603,62.303 279.503 C 64.893 276.914,76.914 264.893,79.503 262.303 C 80.603 261.203,84.301 257.548,87.720 254.180 L 93.937 248.057 94.216 251.128 C 94.370 252.818,94.609 254.412,94.748 254.672 C 94.886 254.931,95.000 230.541,95.000 200.472 C 95.000 143.617,94.975 144.565,96.609 138.200 C 100.238 124.060,110.794 109.841,122.600 103.188 C 123.480 102.693,124.941 101.870,125.846 101.361 C 128.631 99.793,134.029 97.724,138.200 96.623 C 144.441 94.977,143.556 95.000,200.472 95.000 C 230.541 95.000,254.931 94.886,254.672 94.748 C 254.412 94.609,252.818 94.370,251.128 94.216 L 248.057 93.937 254.180 87.720 C 257.548 84.301,261.203 80.603,262.303 79.503 C 264.893 76.914,276.899 64.908,279.555 62.252 C 280.683 61.123,284.396 57.410,287.806 54.000 C 291.216 50.590,294.860 46.945,295.903 45.900 C 296.946 44.854,300.362 41.487,303.493 38.417 L 309.186 32.835 310.564 33.411 C 311.322 33.727,312.855 34.525,313.971 35.183 C 315.087 35.841,316.000 36.234,316.000 36.057 C 316.000 35.880,315.505 35.481,314.900 35.170 C 314.295 34.860,313.509 34.289,313.153 33.903 C 312.797 33.516,312.202 33.200,311.829 33.200 C 311.457 33.200,311.264 33.020,311.400 32.800 C 311.536 32.580,311.367 32.400,311.024 32.400 C 310.681 32.400,310.400 32.220,310.400 32.000 C 310.400 31.780,310.080 31.600,309.688 31.600 C 309.297 31.600,308.717 31.240,308.400 30.800 C 308.083 30.360,307.569 30.000,307.259 30.000 C 306.948 30.000,306.376 29.634,305.988 29.186 C 305.600 28.739,305.039 28.424,304.741 28.486 C 304.444 28.549,304.249 28.362,304.310 28.070 C 304.370 27.779,304.243 27.650,304.026 27.784 C 303.670 28.004,302.097 27.345,301.600 26.768 C 301.490 26.640,300.815 26.281,300.100 25.970 C 299.385 25.659,298.800 25.269,298.800 25.102 C 298.800 24.936,298.440 24.800,298.000 24.800 C 297.560 24.800,297.200 24.620,297.200 24.400 C 297.200 24.180,296.855 24.000,296.433 24.000 C 296.012 24.000,295.607 23.865,295.533 23.700 C 295.241 23.043,286.640 18.725,279.800 15.802 C 278.920 15.426,277.840 14.962,277.400 14.770 C 275.881 14.109,272.194 12.726,270.400 12.144 C 269.410 11.822,268.240 11.401,267.800 11.206 C 267.360 11.012,266.280 10.624,265.400 10.345 C 264.520 10.065,263.629 9.693,263.420 9.518 C 263.211 9.343,262.547 9.200,261.944 9.200 C 261.341 9.200,260.736 9.020,260.600 8.800 C 260.464 8.580,259.924 8.400,259.400 8.400 C 258.876 8.400,258.336 8.220,258.200 8.000 C 258.064 7.780,257.434 7.600,256.800 7.600 C 256.166 7.600,255.536 7.420,255.400 7.200 C 255.264 6.980,254.634 6.800,254.000 6.800 C 253.366 6.800,252.736 6.620,252.600 6.400 C 252.464 6.180,251.834 6.000,251.200 6.000 C 250.566 6.000,249.936 5.820,249.800 5.600 C 249.664 5.380,248.854 5.200,248.000 5.200 C 247.146 5.200,246.348 5.039,246.226 4.842 C 246.105 4.645,245.329 4.382,244.503 4.258 C 243.676 4.133,242.280 3.923,241.400 3.791 C 240.520 3.658,239.440 3.392,239.000 3.198 C 238.560 3.004,237.480 2.750,236.600 2.634 C 235.720 2.518,233.830 2.240,232.400 2.015 C 227.197 1.199,223.337 0.750,220.400 0.619 C 218.750 0.546,218.120 0.563,219.000 0.657 M257.000 95.600 C 258.876 96.077,259.939 96.077,259.200 95.600 C 258.870 95.387,257.970 95.231,257.200 95.253 L 255.800 95.295 257.000 95.600 M261.000 96.400 C 262.196 96.914,263.195 96.914,262.400 96.400 C 262.070 96.187,261.440 96.022,261.000 96.034 L 260.200 96.056 261.000 96.400 M154.400 113.640 C 148.460 114.810,145.624 115.544,145.020 116.070 C 144.811 116.251,144.395 116.400,144.095 116.400 C 141.557 116.400,131.947 122.575,127.267 127.213 C 122.662 131.777,116.400 141.537,116.400 144.151 C 116.400 144.482,116.241 144.851,116.048 144.970 C 115.854 145.090,115.576 145.686,115.430 146.294 C 113.100 155.992,113.208 153.256,113.299 200.600 C 113.345 224.580,113.435 240.465,113.500 235.900 C 113.570 230.871,113.770 227.600,114.005 227.600 C 114.219 227.600,117.344 224.608,120.949 220.952 C 128.428 213.365,129.252 212.538,137.652 204.197 C 141.033 200.839,144.112 197.678,144.493 197.172 C 145.491 195.850,145.572 196.114,145.953 201.953 C 146.142 204.855,146.365 207.299,146.449 207.382 C 146.532 207.465,146.602 204.173,146.605 200.067 C 146.607 195.392,146.802 191.777,147.125 190.400 C 147.409 189.190,147.832 187.390,148.066 186.400 C 153.605 162.945,175.368 145.970,200.072 145.836 C 207.377 145.797,208.166 145.427,201.669 145.088 C 197.771 144.884,196.314 144.534,197.545 144.097 C 197.845 143.990,200.838 141.113,204.197 137.703 C 211.755 130.029,212.712 129.072,220.952 120.949 C 224.608 117.344,227.600 114.219,227.600 114.005 C 227.600 113.770,230.871 113.570,235.900 113.500 C 240.465 113.435,224.400 113.361,200.200 113.334 C 176.000 113.308,155.390 113.445,154.400 113.640 M245.400 113.980 C 246.634 114.315,249.464 114.518,249.167 114.250 C 249.075 114.168,247.920 114.000,246.600 113.877 C 245.022 113.730,244.611 113.765,245.400 113.980 M209.200 146.400 C 210.742 146.894,211.564 146.894,210.800 146.400 C 210.470 146.187,209.750 146.027,209.200 146.046 L 208.200 146.080 209.200 146.400 M197.500 164.695 C 198.655 164.776,200.545 164.776,201.700 164.695 C 202.855 164.614,201.910 164.548,199.600 164.548 C 197.290 164.548,196.345 164.614,197.500 164.695 M191.600 165.188 C 191.050 165.367,189.580 165.815,188.332 166.184 C 176.946 169.550,166.109 181.814,164.637 193.000 C 164.449 194.429,164.484 194.386,164.965 192.600 C 168.960 177.781,180.257 167.211,194.400 165.061 C 195.083 164.957,194.956 164.902,194.000 164.886 C 193.230 164.873,192.150 165.009,191.600 165.188 M206.000 165.200 C 207.368 165.638,208.419 165.638,207.400 165.200 C 206.960 165.011,206.240 164.862,205.800 164.868 C 205.157 164.877,205.196 164.943,206.000 165.200 M164.157 200.000 C 164.157 202.970,164.220 204.185,164.297 202.700 C 164.374 201.215,164.374 198.785,164.297 197.300 C 164.220 195.815,164.157 197.030,164.157 200.000 M146.806 209.433 C 146.809 210.075,146.996 210.870,147.221 211.200 C 147.514 211.630,147.554 211.346,147.362 210.200 C 147.030 208.216,146.798 207.896,146.806 209.433 M147.606 213.033 C 147.609 213.455,147.795 214.070,148.018 214.400 C 148.315 214.838,148.352 214.676,148.156 213.800 C 147.827 212.329,147.598 212.010,147.606 213.033 M113.877 246.600 C 114.000 247.920,114.168 249.075,114.250 249.167 C 114.518 249.464,114.315 246.634,113.980 245.400 C 113.765 244.611,113.730 245.022,113.877 246.600 M95.253 257.200 C 95.231 257.970,95.387 258.870,95.600 259.200 C 96.077 259.939,96.077 258.876,95.600 257.000 L 95.295 255.800 95.253 257.200 M96.034 261.000 C 96.022 261.440,96.187 262.070,96.400 262.400 C 96.914 263.195,96.914 262.196,96.400 261.000 L 96.056 260.200 96.034 261.000 M35.843 315.931 C 35.714 316.139,35.881 316.535,36.214 316.812 C 37.029 317.488,37.260 317.171,36.606 316.275 C 36.315 315.878,35.972 315.723,35.843 315.931 " stroke="none" fill="#fb8660" fill-rule="evenodd"></path></g></svg>