<svg id="svg" version="1.1" xmlns="http://www.w3.org/2000/svg" xmlns:xlink="http://www.w3.org/1999/xlink" width="400" height="400" viewBox="0, 0, 400,400"><g id="svgg"><path id="path0" d="M178.300 0.275 C 176.375 0.361,174.800 0.604,174.800 0.816 C 174.800 1.027,173.461 1.200,171.824 1.200 C 170.187 1.200,168.736 1.380,168.600 1.600 C 168.464 1.820,167.463 2.000,166.376 2.000 C 165.289 2.000,164.400 2.180,164.400 2.400 C 164.400 2.620,163.410 2.800,162.200 2.800 C 160.990 2.800,160.000 2.980,160.000 3.200 C 160.000 3.420,159.201 3.600,158.224 3.600 C 157.247 3.600,156.336 3.780,156.200 4.000 C 156.064 4.220,155.243 4.400,154.376 4.400 C 153.509 4.400,152.800 4.580,152.800 4.800 C 152.800 5.020,152.080 5.200,151.200 5.200 C 150.320 5.200,149.600 5.380,149.600 5.600 C 149.600 5.820,148.880 6.000,148.000 6.000 C 147.120 6.000,146.400 6.180,146.400 6.400 C 146.400 6.620,145.860 6.800,145.200 6.800 C 144.540 6.800,144.000 6.980,144.000 7.200 C 144.000 7.420,143.370 7.600,142.600 7.600 C 141.830 7.600,141.200 7.780,141.200 8.000 C 141.200 8.220,140.660 8.400,140.000 8.400 C 139.340 8.400,138.800 8.599,138.800 8.843 C 138.800 9.086,138.517 9.177,138.171 9.044 C 137.825 8.911,137.150 9.021,136.671 9.287 C 136.192 9.554,135.530 9.794,135.200 9.820 C 134.870 9.847,134.240 10.005,133.800 10.172 C 133.360 10.339,132.460 10.656,131.800 10.878 C 130.335 11.370,128.833 11.975,127.905 12.447 C 127.523 12.641,126.848 12.800,126.405 12.800 C 125.962 12.800,125.600 12.980,125.600 13.200 C 125.600 13.420,125.240 13.600,124.800 13.600 C 124.360 13.600,124.000 13.780,124.000 14.000 C 124.000 14.220,123.561 14.400,123.024 14.400 C 122.487 14.400,121.936 14.580,121.800 14.800 C 121.664 15.020,121.203 15.200,120.776 15.200 C 120.349 15.200,120.000 15.380,120.000 15.600 C 120.000 15.820,119.640 16.000,119.200 16.000 C 118.760 16.000,118.400 16.180,118.400 16.400 C 118.400 16.620,118.128 16.800,117.795 16.800 C 117.207 16.800,116.782 16.967,114.905 17.938 C 114.413 18.192,113.738 18.400,113.405 18.400 C 113.072 18.400,112.800 18.580,112.800 18.800 C 112.800 19.020,112.440 19.200,112.000 19.200 C 111.560 19.200,111.200 19.346,111.200 19.525 C 111.200 19.704,110.570 20.098,109.800 20.400 C 109.030 20.702,108.400 21.096,108.400 21.275 C 108.400 21.454,108.040 21.600,107.600 21.600 C 107.160 21.600,106.800 21.780,106.800 22.000 C 106.800 22.220,106.440 22.400,106.000 22.400 C 105.560 22.400,105.200 22.580,105.200 22.800 C 105.200 23.020,104.906 23.200,104.547 23.200 C 104.188 23.200,103.603 23.531,103.247 23.936 C 102.891 24.341,102.118 24.791,101.528 24.937 C 100.938 25.082,100.180 25.477,99.842 25.815 C 99.505 26.152,99.132 26.422,99.014 26.414 C 98.161 26.357,97.989 26.459,98.242 26.868 C 98.436 27.183,98.313 27.252,97.866 27.081 C 97.500 26.940,97.200 26.999,97.200 27.213 C 97.200 27.426,97.007 27.600,96.772 27.600 C 96.537 27.600,95.559 28.140,94.600 28.800 C 93.641 29.460,92.703 30.000,92.516 30.000 C 92.329 30.000,91.917 30.360,91.600 30.800 C 91.283 31.240,90.743 31.600,90.400 31.600 C 90.057 31.600,89.517 31.960,89.200 32.400 C 88.883 32.840,88.343 33.200,88.000 33.200 C 87.657 33.200,87.117 33.560,86.800 34.000 C 86.483 34.440,85.991 34.800,85.708 34.800 C 85.425 34.800,84.628 35.340,83.937 36.000 C 83.246 36.660,82.478 37.200,82.229 37.200 C 81.980 37.200,81.517 37.560,81.200 38.000 C 80.883 38.440,80.375 38.800,80.072 38.800 C 79.769 38.800,79.017 39.340,78.400 40.000 C 77.783 40.660,77.164 41.200,77.023 41.200 C 76.748 41.200,76.289 41.568,74.404 43.300 C 73.746 43.905,73.030 44.400,72.814 44.400 C 72.598 44.400,71.651 45.167,70.711 46.105 C 69.770 47.043,68.370 48.255,67.600 48.798 C 66.248 49.751,58.660 57.200,59.041 57.200 C 59.144 57.200,58.817 57.626,58.314 58.146 C 57.811 58.667,57.346 59.048,57.280 58.993 C 57.060 58.810,49.801 66.178,48.800 67.600 C 48.258 68.370,46.956 69.884,45.907 70.965 C 44.858 72.046,44.000 73.139,44.000 73.393 C 44.000 73.648,43.595 74.236,43.100 74.700 C 41.950 75.779,41.200 76.696,41.200 77.023 C 41.200 77.164,40.660 77.783,40.000 78.400 C 39.340 79.017,38.800 79.769,38.800 80.072 C 38.800 80.375,38.440 80.883,38.000 81.200 C 37.560 81.517,37.200 82.007,37.200 82.288 C 37.200 82.570,37.020 82.800,36.800 82.800 C 36.580 82.800,36.400 83.030,36.400 83.312 C 36.400 83.593,36.040 84.083,35.600 84.400 C 35.160 84.717,34.800 85.257,34.800 85.600 C 34.800 85.943,34.440 86.483,34.000 86.800 C 33.560 87.117,33.200 87.657,33.200 88.000 C 33.200 88.343,32.840 88.883,32.400 89.200 C 31.960 89.517,31.600 90.057,31.600 90.400 C 31.600 90.743,31.240 91.283,30.800 91.600 C 30.360 91.917,30.000 92.329,30.000 92.516 C 30.000 92.703,29.460 93.641,28.800 94.600 C 28.140 95.559,27.600 96.537,27.600 96.772 C 27.600 97.007,27.409 97.200,27.176 97.200 C 26.943 97.200,26.855 97.365,26.979 97.566 C 27.103 97.767,27.037 97.992,26.832 98.066 C 26.628 98.140,26.401 98.466,26.330 98.790 C 26.258 99.115,25.975 99.623,25.701 99.918 C 25.426 100.214,25.082 100.938,24.937 101.528 C 24.791 102.118,24.341 102.891,23.936 103.247 C 23.531 103.603,23.200 104.188,23.200 104.547 C 23.200 104.906,23.020 105.200,22.800 105.200 C 22.580 105.200,22.400 105.560,22.400 106.000 C 22.400 106.440,22.220 106.800,22.000 106.800 C 21.780 106.800,21.600 107.160,21.600 107.600 C 21.600 108.040,21.454 108.400,21.275 108.400 C 21.096 108.400,20.702 109.030,20.400 109.800 C 20.098 110.570,19.704 111.200,19.525 111.200 C 19.346 111.200,19.200 111.560,19.200 112.000 C 19.200 112.440,19.020 112.800,18.800 112.800 C 18.580 112.800,18.400 113.065,18.400 113.388 C 18.400 113.711,18.040 114.617,17.600 115.400 C 17.160 116.183,16.800 117.179,16.800 117.612 C 16.800 118.045,16.620 118.400,16.400 118.400 C 16.180 118.400,16.000 118.760,16.000 119.200 C 16.000 119.640,15.820 120.000,15.600 120.000 C 15.380 120.000,15.200 120.360,15.200 120.800 C 15.200 121.240,15.020 121.600,14.800 121.600 C 14.580 121.600,14.400 122.140,14.400 122.800 C 14.400 123.460,14.220 124.000,14.000 124.000 C 13.780 124.000,13.600 124.360,13.600 124.800 C 13.600 125.240,13.420 125.600,13.200 125.600 C 12.980 125.600,12.800 125.962,12.800 126.405 C 12.800 126.848,12.641 127.523,12.447 127.905 C 12.252 128.287,11.871 129.140,11.600 129.800 C 11.329 130.460,10.948 131.313,10.753 131.695 C 10.559 132.077,10.400 132.722,10.400 133.128 C 10.400 133.534,10.265 134.002,10.100 134.167 C 9.935 134.332,9.794 134.767,9.786 135.133 C 9.778 135.500,9.545 136.209,9.267 136.708 C 8.990 137.208,8.864 137.780,8.988 137.981 C 9.112 138.181,9.030 138.458,8.807 138.596 C 8.583 138.734,8.400 139.377,8.400 140.024 C 8.400 140.671,8.220 141.200,8.000 141.200 C 7.780 141.200,7.600 141.830,7.600 142.600 C 7.600 143.370,7.420 144.000,7.200 144.000 C 6.980 144.000,6.800 144.540,6.800 145.200 C 6.800 145.860,6.620 146.400,6.400 146.400 C 6.180 146.400,6.000 147.120,6.000 148.000 C 6.000 148.880,5.820 149.600,5.600 149.600 C 5.380 149.600,5.200 150.320,5.200 151.200 C 5.200 152.080,5.020 152.800,4.800 152.800 C 4.580 152.800,4.400 153.509,4.400 154.376 C 4.400 155.243,4.220 156.064,4.000 156.200 C 3.780 156.336,3.600 157.247,3.600 158.224 C 3.600 159.201,3.420 160.000,3.200 160.000 C 2.980 160.000,2.800 160.900,2.800 162.000 C 2.800 163.100,2.620 164.000,2.400 164.000 C 2.180 164.000,2.000 164.979,2.000 166.176 C 2.000 167.373,1.820 168.464,1.600 168.600 C 1.380 168.736,1.200 170.061,1.200 171.544 C 1.200 173.167,1.001 174.439,0.700 174.740 C 0.311 175.129,0.200 180.743,0.200 200.087 C 0.200 219.608,0.307 224.969,0.700 225.100 C 1.035 225.212,1.200 226.171,1.200 228.010 C 1.200 229.518,1.380 230.864,1.600 231.000 C 1.820 231.136,2.000 232.317,2.000 233.624 C 2.000 234.941,2.178 236.000,2.400 236.000 C 2.620 236.000,2.800 236.900,2.800 238.000 C 2.800 239.100,2.980 240.000,3.200 240.000 C 3.420 240.000,3.600 240.799,3.600 241.776 C 3.600 242.753,3.780 243.664,4.000 243.800 C 4.220 243.936,4.400 244.757,4.400 245.624 C 4.400 246.491,4.580 247.200,4.800 247.200 C 5.020 247.200,5.200 247.920,5.200 248.800 C 5.200 249.680,5.380 250.400,5.600 250.400 C 5.820 250.400,6.000 251.120,6.000 252.000 C 6.000 252.880,6.180 253.600,6.400 253.600 C 6.620 253.600,6.800 254.140,6.800 254.800 C 6.800 255.460,6.980 256.000,7.200 256.000 C 7.420 256.000,7.600 256.630,7.600 257.400 C 7.600 258.170,7.780 258.800,8.000 258.800 C 8.220 258.800,8.400 259.340,8.400 260.000 C 8.400 260.660,8.599 261.200,8.843 261.200 C 9.086 261.200,9.184 261.466,9.059 261.790 C 8.935 262.115,9.098 263.015,9.422 263.790 C 9.746 264.566,9.882 265.200,9.725 265.200 C 9.568 265.200,9.656 265.416,9.920 265.680 C 10.184 265.944,10.400 266.486,10.400 266.885 C 10.400 267.284,10.559 267.923,10.753 268.305 C 10.948 268.687,11.329 269.540,11.600 270.200 C 11.871 270.860,12.252 271.713,12.447 272.095 C 12.641 272.477,12.800 273.152,12.800 273.595 C 12.800 274.038,12.980 274.400,13.200 274.400 C 13.420 274.400,13.600 274.760,13.600 275.200 C 13.600 275.640,13.780 276.000,14.000 276.000 C 14.220 276.000,14.400 276.540,14.400 277.200 C 14.400 277.860,14.580 278.400,14.800 278.400 C 15.020 278.400,15.200 278.760,15.200 279.200 C 15.200 279.640,15.380 280.000,15.600 280.000 C 15.820 280.000,16.000 280.360,16.000 280.800 C 16.000 281.240,16.180 281.600,16.400 281.600 C 16.620 281.600,16.800 281.872,16.800 282.205 C 16.800 282.538,16.980 283.168,17.200 283.605 C 17.420 284.042,17.780 284.758,18.000 285.195 C 18.220 285.632,18.400 286.262,18.400 286.595 C 18.400 286.928,18.535 287.201,18.700 287.201 C 18.865 287.202,19.450 288.192,20.000 289.400 C 20.550 290.608,21.135 291.598,21.300 291.599 C 21.465 291.599,21.600 291.960,21.600 292.400 C 21.600 292.840,21.780 293.200,22.000 293.200 C 22.220 293.200,22.400 293.560,22.400 294.000 C 22.400 294.440,22.580 294.800,22.800 294.800 C 23.020 294.800,23.200 295.036,23.200 295.325 C 23.200 295.613,23.531 296.204,23.935 296.638 C 24.339 297.072,24.789 297.903,24.936 298.485 C 25.082 299.068,25.484 299.827,25.829 300.172 C 26.175 300.517,26.326 300.800,26.167 300.800 C 26.007 300.800,26.174 301.130,26.539 301.532 C 26.903 301.935,27.081 302.385,26.934 302.532 C 26.787 302.680,26.877 302.800,27.133 302.800 C 27.390 302.800,27.600 302.993,27.600 303.228 C 27.600 303.463,28.140 304.441,28.800 305.400 C 29.460 306.359,30.000 307.297,30.000 307.484 C 30.000 307.671,30.360 308.083,30.800 308.400 C 31.240 308.717,31.600 309.257,31.600 309.600 C 31.600 309.943,31.960 310.483,32.400 310.800 C 32.840 311.117,33.200 311.657,33.200 312.000 C 33.200 312.343,33.560 312.883,34.000 313.200 C 34.440 313.517,34.800 314.057,34.800 314.400 C 34.800 314.743,35.160 315.283,35.600 315.600 C 36.040 315.917,36.400 316.407,36.400 316.688 C 36.400 316.970,36.580 317.200,36.800 317.200 C 37.020 317.200,37.200 317.430,37.200 317.712 C 37.200 317.993,37.560 318.483,38.000 318.800 C 38.440 319.117,38.800 319.625,38.800 319.928 C 38.800 320.231,39.340 320.983,40.000 321.600 C 40.660 322.217,41.200 322.836,41.200 322.977 C 41.200 323.252,41.568 323.711,43.300 325.596 C 43.905 326.254,44.400 326.970,44.400 327.186 C 44.400 327.402,45.167 328.349,46.105 329.289 C 47.043 330.230,48.255 331.630,48.799 332.400 C 49.804 333.824,56.763 340.824,58.441 342.100 C 58.948 342.485,59.248 342.800,59.108 342.800 C 58.679 342.800,66.108 350.150,67.600 351.202 C 68.370 351.745,69.770 352.957,70.711 353.895 C 71.651 354.833,72.574 355.600,72.760 355.600 C 72.947 355.600,73.787 356.230,74.628 357.000 C 75.469 357.770,76.295 358.400,76.465 358.400 C 76.635 358.400,77.403 359.030,78.173 359.800 C 78.943 360.570,79.810 361.200,80.098 361.200 C 80.387 361.200,80.883 361.560,81.200 362.000 C 81.517 362.440,81.980 362.800,82.229 362.800 C 82.478 362.800,83.246 363.340,83.937 364.000 C 84.628 364.660,85.425 365.200,85.708 365.200 C 85.991 365.200,86.483 365.560,86.800 366.000 C 87.117 366.440,87.657 366.800,88.000 366.800 C 88.343 366.800,88.883 367.160,89.200 367.600 C 89.517 368.040,90.057 368.400,90.400 368.400 C 90.743 368.400,91.283 368.760,91.600 369.200 C 91.917 369.640,92.329 370.000,92.516 370.000 C 92.703 370.000,93.641 370.540,94.600 371.200 C 95.559 371.860,96.537 372.400,96.772 372.400 C 97.007 372.400,97.200 372.580,97.200 372.800 C 97.200 373.020,97.397 373.200,97.638 373.200 C 97.879 373.200,98.565 373.548,99.163 373.973 C 99.760 374.399,100.772 374.878,101.411 375.039 C 102.050 375.199,102.928 375.661,103.362 376.065 C 103.796 376.469,104.387 376.800,104.675 376.800 C 104.964 376.800,105.200 376.980,105.200 377.200 C 105.200 377.420,105.560 377.600,106.000 377.600 C 106.440 377.600,106.800 377.780,106.800 378.000 C 106.800 378.220,107.160 378.400,107.600 378.400 C 108.040 378.400,108.400 378.580,108.400 378.800 C 108.400 379.020,108.745 379.200,109.167 379.200 C 109.588 379.200,109.993 379.335,110.067 379.500 C 110.140 379.665,111.100 380.225,112.200 380.744 C 113.300 381.263,114.513 381.848,114.895 382.044 C 115.277 382.240,115.862 382.400,116.195 382.400 C 116.528 382.400,116.800 382.580,116.800 382.800 C 116.800 383.020,117.160 383.200,117.600 383.200 C 118.040 383.200,118.400 383.380,118.400 383.600 C 118.400 383.820,118.760 384.000,119.200 384.000 C 119.640 384.000,120.000 384.180,120.000 384.400 C 120.000 384.620,120.349 384.800,120.776 384.800 C 121.203 384.800,121.664 384.980,121.800 385.200 C 121.936 385.420,122.487 385.600,123.024 385.600 C 123.561 385.600,124.000 385.780,124.000 386.000 C 124.000 386.220,124.360 386.400,124.800 386.400 C 125.240 386.400,125.600 386.580,125.600 386.800 C 125.600 387.020,125.962 387.200,126.405 387.200 C 126.848 387.200,127.523 387.359,127.905 387.553 C 128.840 388.029,130.307 388.618,132.000 389.200 C 132.770 389.464,133.760 389.823,134.200 389.997 C 136.018 390.715,139.355 391.600,140.246 391.600 C 140.771 391.600,141.200 391.780,141.200 392.000 C 141.200 392.220,141.830 392.400,142.600 392.400 C 143.370 392.400,144.000 392.580,144.000 392.800 C 144.000 393.020,144.529 393.200,145.176 393.200 C 145.823 393.200,146.464 393.380,146.600 393.600 C 146.736 393.820,147.467 394.000,148.224 394.000 C 148.981 394.000,149.600 394.180,149.600 394.400 C 149.600 394.620,150.320 394.800,151.200 394.800 C 152.080 394.800,152.800 394.980,152.800 395.200 C 152.800 395.420,153.509 395.600,154.376 395.600 C 155.243 395.600,156.064 395.780,156.200 396.000 C 156.336 396.220,157.247 396.400,158.224 396.400 C 159.201 396.400,160.000 396.580,160.000 396.800 C 160.000 397.020,160.990 397.200,162.200 397.200 C 163.410 397.200,164.400 397.380,164.400 397.600 C 164.400 397.820,165.379 398.000,166.576 398.000 C 167.773 398.000,168.864 398.180,169.000 398.400 C 169.136 398.620,170.482 398.800,171.990 398.800 C 173.829 398.800,174.788 398.965,174.900 399.300 C 175.144 400.032,224.856 400.032,225.100 399.300 C 225.212 398.965,226.171 398.800,228.010 398.800 C 229.518 398.800,230.864 398.620,231.000 398.400 C 231.136 398.180,232.216 398.000,233.400 398.000 C 234.584 398.000,235.664 397.820,235.800 397.600 C 235.936 397.380,236.937 397.200,238.024 397.200 C 239.111 397.200,240.000 397.020,240.000 396.800 C 240.000 396.580,240.709 396.400,241.576 396.400 C 242.443 396.400,243.264 396.220,243.400 396.000 C 243.536 395.780,244.447 395.600,245.424 395.600 C 246.401 395.600,247.200 395.420,247.200 395.200 C 247.200 394.980,247.920 394.800,248.800 394.800 C 249.680 394.800,250.400 394.620,250.400 394.400 C 250.400 394.180,251.019 394.000,251.776 394.000 C 252.533 394.000,253.264 393.820,253.400 393.600 C 253.536 393.380,254.177 393.200,254.824 393.200 C 255.471 393.200,256.000 393.020,256.000 392.800 C 256.000 392.580,256.630 392.400,257.400 392.400 C 258.170 392.400,258.800 392.241,258.800 392.046 C 258.800 391.851,259.787 391.569,260.994 391.418 C 262.200 391.267,263.291 390.977,263.417 390.772 C 263.544 390.567,264.076 390.400,264.600 390.400 C 265.124 390.400,265.664 390.220,265.800 390.000 C 265.936 389.780,266.399 389.600,266.829 389.600 C 267.259 389.600,267.923 389.441,268.305 389.247 C 268.687 389.052,269.540 388.671,270.200 388.400 C 270.860 388.129,271.713 387.748,272.095 387.553 C 272.477 387.359,273.152 387.200,273.595 387.200 C 274.038 387.200,274.400 387.020,274.400 386.800 C 274.400 386.580,274.760 386.400,275.200 386.400 C 275.640 386.400,276.000 386.220,276.000 386.000 C 276.000 385.780,276.540 385.600,277.200 385.600 C 277.860 385.600,278.400 385.420,278.400 385.200 C 278.400 384.980,278.760 384.800,279.200 384.800 C 279.640 384.800,280.000 384.620,280.000 384.400 C 280.000 384.180,280.360 384.000,280.800 384.000 C 281.240 384.000,281.600 383.820,281.600 383.600 C 281.600 383.380,281.872 383.200,282.205 383.200 C 282.793 383.200,283.218 383.033,285.095 382.062 C 285.587 381.808,286.262 381.600,286.595 381.600 C 286.928 381.600,287.201 381.465,287.201 381.300 C 287.202 381.135,288.192 380.550,289.400 380.000 C 290.608 379.450,291.598 378.865,291.599 378.700 C 291.599 378.535,291.960 378.400,292.400 378.400 C 292.840 378.400,293.200 378.220,293.200 378.000 C 293.200 377.780,293.560 377.600,294.000 377.600 C 294.440 377.600,294.800 377.420,294.800 377.200 C 294.800 376.980,295.036 376.800,295.325 376.800 C 295.613 376.800,296.236 376.440,296.708 376.000 C 297.180 375.560,297.775 375.200,298.029 375.200 C 298.611 375.200,302.553 373.105,302.733 372.700 C 302.807 372.535,303.044 372.400,303.261 372.400 C 303.478 372.400,304.441 371.860,305.400 371.200 C 306.359 370.540,307.297 370.000,307.484 370.000 C 307.671 370.000,308.083 369.640,308.400 369.200 C 308.717 368.760,309.257 368.400,309.600 368.400 C 309.943 368.400,310.483 368.040,310.800 367.600 C 311.117 367.160,311.657 366.800,312.000 366.800 C 312.343 366.800,312.883 366.440,313.200 366.000 C 313.517 365.560,314.057 365.200,314.400 365.200 C 314.743 365.200,315.283 364.840,315.600 364.400 C 315.917 363.960,316.407 363.600,316.688 363.600 C 316.970 363.600,317.200 363.420,317.200 363.200 C 317.200 362.980,317.430 362.800,317.712 362.800 C 317.993 362.800,318.483 362.440,318.800 362.000 C 319.117 361.560,319.625 361.200,319.928 361.200 C 320.231 361.200,320.983 360.660,321.600 360.000 C 322.217 359.340,322.874 358.800,323.061 358.800 C 323.247 358.800,324.188 358.080,325.151 357.200 C 326.113 356.320,327.054 355.600,327.240 355.600 C 327.426 355.600,328.349 354.833,329.289 353.895 C 330.230 352.957,331.630 351.747,332.400 351.207 C 333.170 350.666,335.553 348.419,337.696 346.212 C 339.839 344.005,341.729 342.071,341.896 341.913 C 345.754 338.269,350.440 333.479,351.201 332.400 C 351.745 331.630,352.957 330.230,353.895 329.289 C 354.833 328.349,355.600 327.426,355.600 327.240 C 355.600 327.054,356.320 326.113,357.200 325.151 C 358.080 324.188,358.800 323.247,358.800 323.061 C 358.800 322.874,359.340 322.217,360.000 321.600 C 360.660 320.983,361.200 320.231,361.200 319.928 C 361.200 319.625,361.560 319.117,362.000 318.800 C 362.440 318.483,362.800 317.993,362.800 317.712 C 362.800 317.430,362.980 317.200,363.200 317.200 C 363.420 317.200,363.600 316.970,363.600 316.688 C 363.600 316.407,363.960 315.917,364.400 315.600 C 364.840 315.283,365.200 314.743,365.200 314.400 C 365.200 314.057,365.560 313.517,366.000 313.200 C 366.440 312.883,366.800 312.343,366.800 312.000 C 366.800 311.657,367.160 311.117,367.600 310.800 C 368.040 310.483,368.400 309.943,368.400 309.600 C 368.400 309.257,368.760 308.717,369.200 308.400 C 369.640 308.083,370.000 307.671,370.000 307.484 C 370.000 307.297,370.540 306.359,371.200 305.400 C 371.860 304.441,372.400 303.463,372.400 303.228 C 372.400 302.993,372.580 302.800,372.800 302.800 C 373.020 302.800,373.200 302.440,373.200 302.000 C 373.200 301.560,373.347 301.200,373.526 301.200 C 373.874 301.200,375.200 298.642,375.200 297.970 C 375.200 297.748,375.560 297.180,376.000 296.708 C 376.440 296.236,376.800 295.613,376.800 295.325 C 376.800 295.036,376.980 294.800,377.200 294.800 C 377.420 294.800,377.600 294.440,377.600 294.000 C 377.600 293.560,377.780 293.200,378.000 293.200 C 378.220 293.200,378.400 292.840,378.400 292.400 C 378.400 291.960,378.535 291.599,378.700 291.599 C 378.865 291.598,379.450 290.608,380.000 289.400 C 380.550 288.192,381.135 287.202,381.300 287.201 C 381.465 287.201,381.600 286.928,381.600 286.595 C 381.600 286.262,381.780 285.632,382.000 285.195 C 382.220 284.758,382.580 284.042,382.800 283.605 C 383.020 283.168,383.200 282.538,383.200 282.205 C 383.200 281.872,383.380 281.600,383.600 281.600 C 383.820 281.600,384.000 281.240,384.000 280.800 C 384.000 280.360,384.180 280.000,384.400 280.000 C 384.620 280.000,384.800 279.651,384.800 279.224 C 384.800 278.797,384.980 278.336,385.200 278.200 C 385.420 278.064,385.600 277.513,385.600 276.976 C 385.600 276.439,385.780 276.000,386.000 276.000 C 386.220 276.000,386.400 275.640,386.400 275.200 C 386.400 274.760,386.580 274.400,386.800 274.400 C 387.020 274.400,387.200 274.038,387.200 273.595 C 387.200 273.152,387.359 272.477,387.553 272.095 C 387.748 271.713,388.129 270.860,388.400 270.200 C 388.671 269.540,389.052 268.687,389.247 268.305 C 389.441 267.923,389.600 267.259,389.600 266.829 C 389.600 266.399,389.780 265.936,390.000 265.800 C 390.220 265.664,390.400 265.124,390.400 264.600 C 390.400 264.076,390.567 263.544,390.772 263.417 C 390.977 263.291,391.267 262.200,391.418 260.994 C 391.569 259.787,391.851 258.800,392.046 258.800 C 392.241 258.800,392.400 258.170,392.400 257.400 C 392.400 256.630,392.580 256.000,392.800 256.000 C 393.020 256.000,393.200 255.471,393.200 254.824 C 393.200 254.177,393.380 253.536,393.600 253.400 C 393.820 253.264,394.000 252.533,394.000 251.776 C 394.000 251.019,394.180 250.400,394.400 250.400 C 394.620 250.400,394.800 249.680,394.800 248.800 C 394.800 247.920,394.980 247.200,395.200 247.200 C 395.420 247.200,395.600 246.401,395.600 245.424 C 395.600 244.447,395.780 243.536,396.000 243.400 C 396.220 243.264,396.400 242.443,396.400 241.576 C 396.400 240.709,396.580 240.000,396.800 240.000 C 397.020 240.000,397.200 239.111,397.200 238.024 C 397.200 236.937,397.380 235.936,397.600 235.800 C 397.820 235.664,398.000 234.584,398.000 233.400 C 398.000 232.216,398.180 231.136,398.400 231.000 C 398.620 230.864,398.800 229.518,398.800 228.010 C 398.800 226.171,398.965 225.212,399.300 225.100 C 399.693 224.969,399.800 219.591,399.800 200.000 C 399.800 180.409,399.693 175.031,399.300 174.900 C 398.965 174.788,398.800 173.829,398.800 171.990 C 398.800 170.482,398.620 169.136,398.400 169.000 C 398.180 168.864,398.000 167.784,398.000 166.600 C 398.000 165.416,397.820 164.336,397.600 164.200 C 397.380 164.064,397.200 163.063,397.200 161.976 C 397.200 160.889,397.020 160.000,396.800 160.000 C 396.580 160.000,396.400 159.201,396.400 158.224 C 396.400 157.247,396.220 156.336,396.000 156.200 C 395.780 156.064,395.600 155.243,395.600 154.376 C 395.600 153.509,395.420 152.800,395.200 152.800 C 394.980 152.800,394.800 152.080,394.800 151.200 C 394.800 150.320,394.620 149.600,394.400 149.600 C 394.180 149.600,394.000 148.981,394.000 148.224 C 394.000 147.467,393.820 146.736,393.600 146.600 C 393.380 146.464,393.200 145.823,393.200 145.176 C 393.200 144.529,393.020 144.000,392.800 144.000 C 392.580 144.000,392.400 143.370,392.400 142.600 C 392.400 141.830,392.241 141.200,392.046 141.200 C 391.851 141.200,391.569 140.213,391.418 139.006 C 391.267 137.800,390.977 136.709,390.772 136.583 C 390.567 136.456,390.400 135.924,390.400 135.400 C 390.400 134.876,390.220 134.336,390.000 134.200 C 389.780 134.064,389.600 133.601,389.600 133.171 C 389.600 132.741,389.441 132.077,389.247 131.695 C 389.052 131.313,388.671 130.460,388.400 129.800 C 388.129 129.140,387.748 128.287,387.553 127.905 C 387.359 127.523,387.200 126.848,387.200 126.405 C 387.200 125.962,387.020 125.600,386.800 125.600 C 386.580 125.600,386.400 125.240,386.400 124.800 C 386.400 124.360,386.220 124.000,386.000 124.000 C 385.780 124.000,385.600 123.460,385.600 122.800 C 385.600 122.140,385.420 121.600,385.200 121.600 C 384.980 121.600,384.800 121.240,384.800 120.800 C 384.800 120.360,384.620 120.000,384.400 120.000 C 384.180 120.000,384.000 119.640,384.000 119.200 C 384.000 118.760,383.820 118.400,383.600 118.400 C 383.380 118.400,383.200 118.040,383.200 117.600 C 383.200 117.160,383.020 116.800,382.800 116.800 C 382.580 116.800,382.400 116.361,382.400 115.824 C 382.400 115.287,382.220 114.736,382.000 114.600 C 381.780 114.464,381.600 114.003,381.600 113.576 C 381.600 113.149,381.420 112.800,381.200 112.800 C 380.980 112.800,380.800 112.440,380.800 112.000 C 380.800 111.560,380.654 111.200,380.475 111.200 C 380.296 111.200,379.902 110.570,379.600 109.800 C 379.298 109.030,378.904 108.400,378.725 108.400 C 378.546 108.400,378.400 108.040,378.400 107.600 C 378.400 107.160,378.220 106.800,378.000 106.800 C 377.780 106.800,377.600 106.440,377.600 106.000 C 377.600 105.560,377.420 105.200,377.200 105.200 C 376.980 105.200,376.800 104.964,376.800 104.675 C 376.800 104.387,376.440 103.764,376.000 103.292 C 375.560 102.820,375.200 102.219,375.200 101.957 C 375.200 101.251,373.085 97.200,372.716 97.200 C 372.542 97.200,372.400 97.007,372.400 96.772 C 372.400 96.537,371.860 95.559,371.200 94.600 C 370.540 93.641,370.000 92.703,370.000 92.516 C 370.000 92.329,369.640 91.917,369.200 91.600 C 368.760 91.283,368.400 90.743,368.400 90.400 C 368.400 90.057,368.040 89.517,367.600 89.200 C 367.160 88.883,366.800 88.343,366.800 88.000 C 366.800 87.657,366.440 87.117,366.000 86.800 C 365.560 86.483,365.200 85.943,365.200 85.600 C 365.200 85.257,364.840 84.717,364.400 84.400 C 363.960 84.083,363.600 83.620,363.600 83.371 C 363.600 83.122,363.060 82.354,362.400 81.663 C 361.740 80.972,361.200 80.208,361.200 79.964 C 361.200 79.720,360.660 79.017,360.000 78.400 C 359.340 77.783,358.800 77.126,358.800 76.939 C 358.800 76.753,358.080 75.812,357.200 74.849 C 356.320 73.887,355.600 72.946,355.600 72.760 C 355.600 72.574,354.833 71.651,353.895 70.711 C 352.957 69.770,351.745 68.370,351.202 67.600 C 350.150 66.108,342.800 58.679,342.800 59.108 C 342.800 59.248,342.485 58.948,342.100 58.441 C 340.833 56.774,333.829 49.807,332.405 48.799 C 331.638 48.255,330.135 46.953,329.065 45.905 C 327.995 44.857,326.900 44.000,326.632 44.000 C 326.364 44.000,325.764 43.595,325.300 43.100 C 324.221 41.950,323.304 41.200,322.977 41.200 C 322.836 41.200,322.217 40.660,321.600 40.000 C 320.983 39.340,320.280 38.800,320.036 38.800 C 319.792 38.800,319.028 38.260,318.337 37.600 C 317.646 36.940,316.878 36.400,316.629 36.400 C 316.380 36.400,315.917 36.040,315.600 35.600 C 315.283 35.160,314.743 34.800,314.400 34.800 C 314.057 34.800,313.517 34.440,313.200 34.000 C 312.883 33.560,312.343 33.200,312.000 33.200 C 311.657 33.200,311.117 32.840,310.800 32.400 C 310.483 31.960,309.943 31.600,309.600 31.600 C 309.257 31.600,308.717 31.240,308.400 30.800 C 308.083 30.360,307.671 30.000,307.484 30.000 C 307.297 30.000,306.359 29.460,305.400 28.800 C 304.441 28.140,303.463 27.600,303.228 27.600 C 302.993 27.600,302.800 27.409,302.800 27.176 C 302.800 26.943,302.608 26.871,302.373 27.016 C 302.139 27.161,301.694 26.947,301.386 26.540 C 301.078 26.133,300.820 25.948,300.813 26.129 C 300.806 26.309,300.517 26.175,300.172 25.829 C 299.827 25.484,299.068 25.082,298.485 24.936 C 297.903 24.789,297.072 24.339,296.638 23.935 C 296.204 23.531,295.613 23.200,295.325 23.200 C 295.036 23.200,294.800 23.020,294.800 22.800 C 294.800 22.580,294.440 22.400,294.000 22.400 C 293.560 22.400,293.200 22.220,293.200 22.000 C 293.200 21.780,292.840 21.600,292.400 21.600 C 291.960 21.600,291.600 21.454,291.600 21.275 C 291.600 21.096,290.970 20.702,290.200 20.400 C 289.430 20.098,288.800 19.704,288.800 19.525 C 288.800 19.346,288.440 19.200,288.000 19.200 C 287.560 19.200,287.200 19.020,287.200 18.800 C 287.200 18.580,286.928 18.400,286.595 18.400 C 286.007 18.400,285.582 18.233,283.705 17.262 C 283.213 17.008,282.538 16.800,282.205 16.800 C 281.872 16.800,281.600 16.620,281.600 16.400 C 281.600 16.180,281.240 16.000,280.800 16.000 C 280.360 16.000,280.000 15.820,280.000 15.600 C 280.000 15.380,279.640 15.200,279.200 15.200 C 278.760 15.200,278.400 15.020,278.400 14.800 C 278.400 14.580,277.860 14.400,277.200 14.400 C 276.540 14.400,276.000 14.220,276.000 14.000 C 276.000 13.780,275.640 13.600,275.200 13.600 C 274.760 13.600,274.400 13.420,274.400 13.200 C 274.400 12.980,274.038 12.800,273.595 12.800 C 273.152 12.800,272.477 12.641,272.095 12.447 C 271.713 12.252,270.860 11.871,270.200 11.600 C 269.540 11.329,268.687 10.948,268.305 10.753 C 267.923 10.559,267.259 10.400,266.829 10.400 C 266.399 10.400,265.949 10.241,265.829 10.046 C 265.635 9.734,264.600 9.445,262.308 9.064 C 261.928 9.001,261.493 8.826,261.341 8.675 C 261.190 8.524,260.557 8.400,259.933 8.400 C 259.310 8.400,258.800 8.220,258.800 8.000 C 258.800 7.780,258.170 7.600,257.400 7.600 C 256.630 7.600,256.000 7.420,256.000 7.200 C 256.000 6.980,255.460 6.800,254.800 6.800 C 254.140 6.800,253.600 6.620,253.600 6.400 C 253.600 6.180,252.880 6.000,252.000 6.000 C 251.120 6.000,250.400 5.820,250.400 5.600 C 250.400 5.380,249.680 5.200,248.800 5.200 C 247.920 5.200,247.200 5.020,247.200 4.800 C 247.200 4.580,246.491 4.400,245.624 4.400 C 244.757 4.400,243.936 4.220,243.800 4.000 C 243.664 3.780,242.753 3.600,241.776 3.600 C 240.799 3.600,240.000 3.420,240.000 3.200 C 240.000 2.980,239.100 2.800,238.000 2.800 C 236.900 2.800,236.000 2.620,236.000 2.400 C 236.000 2.178,234.941 2.000,233.624 2.000 C 232.317 2.000,231.136 1.820,231.000 1.600 C 230.864 1.380,229.518 1.200,228.010 1.200 C 226.193 1.200,225.211 1.034,225.103 0.708 C 224.941 0.222,187.291 -0.126,178.300 0.275 M238.800 119.600 C 238.800 119.837,240.259 120.000,242.376 120.000 C 244.343 120.000,246.064 120.180,246.200 120.400 C 246.336 120.620,246.889 120.800,247.429 120.800 C 247.969 120.800,248.723 120.962,249.105 121.161 C 249.487 121.360,250.610 121.760,251.600 122.050 C 252.590 122.341,254.620 123.169,256.111 123.889 C 257.601 124.610,259.097 125.200,259.434 125.200 C 259.771 125.200,259.953 125.353,259.837 125.540 C 259.722 125.727,260.116 126.132,260.714 126.440 C 261.311 126.748,262.277 127.495,262.860 128.100 C 263.444 128.705,264.075 129.200,264.263 129.200 C 264.451 129.200,265.369 129.920,266.303 130.800 C 267.957 132.358,270.800 133.117,270.800 132.000 C 270.800 131.780,271.520 131.600,272.400 131.600 C 273.280 131.600,274.000 131.420,274.000 131.200 C 274.000 130.980,274.630 130.800,275.400 130.800 C 276.170 130.800,276.800 130.620,276.800 130.400 C 276.800 130.180,277.340 130.000,278.000 130.000 C 278.660 130.000,279.200 129.820,279.200 129.600 C 279.200 129.380,279.740 129.200,280.400 129.200 C 281.060 129.200,281.600 129.020,281.600 128.800 C 281.600 128.580,282.039 128.400,282.576 128.400 C 283.113 128.400,283.664 128.220,283.800 128.000 C 283.936 127.780,284.397 127.600,284.824 127.600 C 285.251 127.600,285.600 127.420,285.600 127.200 C 285.600 126.980,285.960 126.800,286.400 126.800 C 286.840 126.800,287.200 126.620,287.200 126.400 C 287.200 126.180,287.549 126.000,287.976 126.000 C 288.403 126.000,288.852 125.840,288.973 125.644 C 289.094 125.449,289.687 125.164,290.292 125.013 C 290.897 124.861,291.509 124.548,291.651 124.317 C 292.382 123.134,292.650 124.561,291.963 125.982 C 291.543 126.850,291.200 127.710,291.200 127.892 C 291.200 128.074,290.840 128.483,290.400 128.800 C 289.960 129.117,289.600 129.657,289.600 130.000 C 289.600 130.343,289.240 130.883,288.800 131.200 C 288.360 131.517,288.000 132.021,288.000 132.320 C 288.000 132.618,287.280 133.554,286.400 134.400 C 285.520 135.246,284.800 136.104,284.800 136.309 C 284.800 136.513,284.227 137.112,283.526 137.640 C 282.826 138.168,281.480 139.365,280.537 140.300 C 279.593 141.235,278.636 142.000,278.411 142.000 C 278.185 142.000,278.000 142.191,278.000 142.424 C 278.000 142.657,277.819 142.735,277.597 142.598 C 277.376 142.461,277.086 142.631,276.954 142.975 C 276.822 143.319,276.464 143.600,276.157 143.600 C 275.399 143.600,275.451 144.257,276.233 144.557 C 277.278 144.958,281.600 144.832,281.600 144.400 C 281.600 144.180,282.399 144.000,283.376 144.000 C 284.353 144.000,285.264 143.820,285.400 143.600 C 285.536 143.380,286.357 143.200,287.224 143.200 C 288.091 143.200,288.800 143.020,288.800 142.800 C 288.800 142.580,289.340 142.400,290.000 142.400 C 290.660 142.400,291.200 142.233,291.200 142.029 C 291.200 141.825,292.190 141.534,293.400 141.383 C 294.610 141.232,295.600 140.949,295.600 140.754 C 295.600 140.559,295.870 140.400,296.200 140.400 C 297.064 140.400,296.939 141.031,295.867 142.084 C 295.353 142.588,294.228 143.898,293.367 144.995 C 291.468 147.411,283.687 155.200,283.170 155.200 C 282.967 155.200,282.059 155.920,281.152 156.800 C 280.245 157.680,279.262 158.400,278.966 158.400 C 278.537 158.400,278.392 160.240,278.245 167.500 C 278.060 176.673,277.770 181.296,277.312 182.400 C 277.175 182.730,277.044 183.630,277.021 184.400 C 276.997 185.170,276.792 186.160,276.565 186.600 C 276.337 187.040,276.175 187.940,276.205 188.600 C 276.235 189.260,276.000 190.205,275.683 190.701 C 275.366 191.196,275.201 191.961,275.316 192.401 C 275.431 192.840,275.362 193.200,275.163 193.200 C 274.963 193.200,274.800 193.729,274.800 194.376 C 274.800 195.023,274.620 195.664,274.400 195.800 C 274.180 195.936,274.000 196.667,274.000 197.424 C 274.000 198.181,273.820 198.800,273.600 198.800 C 273.380 198.800,273.200 199.340,273.200 200.000 C 273.200 200.660,273.020 201.200,272.800 201.200 C 272.580 201.200,272.400 201.639,272.400 202.176 C 272.400 202.713,272.220 203.264,272.000 203.400 C 271.780 203.536,271.600 203.997,271.600 204.424 C 271.600 204.851,271.420 205.200,271.200 205.200 C 270.980 205.200,270.800 205.740,270.800 206.400 C 270.800 207.060,270.620 207.600,270.400 207.600 C 270.180 207.600,270.000 207.960,270.000 208.400 C 270.000 208.840,269.820 209.200,269.600 209.200 C 269.380 209.200,269.200 209.650,269.200 210.200 C 269.200 210.750,269.020 211.200,268.800 211.200 C 268.580 211.200,268.400 211.560,268.400 212.000 C 268.400 212.440,268.220 212.800,268.000 212.800 C 267.780 212.800,267.600 213.160,267.600 213.600 C 267.600 214.040,267.420 214.400,267.200 214.400 C 266.980 214.400,266.800 214.760,266.800 215.200 C 266.800 215.640,266.620 216.000,266.400 216.000 C 266.180 216.000,266.000 216.360,266.000 216.800 C 266.000 217.240,265.820 217.600,265.600 217.600 C 265.380 217.600,265.200 217.960,265.200 218.400 C 265.200 218.840,265.020 219.200,264.800 219.200 C 264.580 219.200,264.400 219.560,264.400 220.000 C 264.400 220.440,264.220 220.800,264.000 220.800 C 263.780 220.800,263.600 221.160,263.600 221.600 C 263.600 222.040,263.442 222.400,263.249 222.400 C 263.055 222.400,262.673 222.940,262.400 223.600 C 262.127 224.260,261.745 224.800,261.551 224.800 C 261.358 224.800,261.200 224.997,261.200 225.238 C 261.200 225.479,260.828 226.199,260.373 226.838 C 259.918 227.477,259.661 228.000,259.801 228.000 C 259.942 228.000,259.773 228.285,259.425 228.632 C 259.077 228.980,258.875 229.397,258.975 229.559 C 259.075 229.722,258.807 230.107,258.379 230.415 C 257.950 230.724,257.600 231.207,257.600 231.488 C 257.600 231.770,257.420 232.000,257.200 232.000 C 256.980 232.000,256.800 232.230,256.800 232.512 C 256.800 232.793,256.440 233.283,256.000 233.600 C 255.560 233.917,255.200 234.425,255.200 234.728 C 255.200 235.031,254.660 235.783,254.000 236.400 C 253.340 237.017,252.800 237.693,252.800 237.903 C 252.800 238.331,250.145 241.281,245.487 246.028 C 243.775 247.772,242.493 249.200,242.637 249.200 C 242.782 249.200,242.213 249.830,241.372 250.600 C 240.531 251.370,239.687 252.000,239.496 252.000 C 239.305 252.000,238.271 252.900,237.200 254.000 C 236.129 255.100,235.082 256.000,234.874 256.000 C 234.666 256.000,233.785 256.675,232.916 257.500 C 232.047 258.325,231.082 259.059,230.772 259.132 C 230.461 259.205,230.116 259.386,230.004 259.536 C 229.684 259.963,226.453 262.000,226.097 262.000 C 225.921 262.000,225.517 262.360,225.200 262.800 C 224.883 263.240,224.303 263.600,223.912 263.600 C 223.520 263.600,223.200 263.780,223.200 264.000 C 223.200 264.220,222.964 264.400,222.675 264.400 C 222.387 264.400,221.764 264.760,221.292 265.200 C 220.820 265.640,220.156 266.000,219.817 266.000 C 219.478 266.000,219.200 266.180,219.200 266.400 C 219.200 266.620,218.840 266.800,218.400 266.800 C 217.960 266.800,217.600 266.980,217.600 267.200 C 217.600 267.420,217.240 267.600,216.800 267.600 C 216.360 267.600,216.000 267.780,216.000 268.000 C 216.000 268.220,215.640 268.400,215.200 268.400 C 214.760 268.400,214.400 268.580,214.400 268.800 C 214.400 269.020,214.040 269.200,213.600 269.200 C 213.160 269.200,212.800 269.380,212.800 269.600 C 212.800 269.820,212.440 270.000,212.000 270.000 C 211.560 270.000,211.200 270.180,211.200 270.400 C 211.200 270.620,210.840 270.800,210.400 270.800 C 209.960 270.800,209.600 270.980,209.600 271.200 C 209.600 271.420,209.150 271.600,208.600 271.600 C 208.050 271.600,207.600 271.780,207.600 272.000 C 207.600 272.220,207.240 272.400,206.800 272.400 C 206.360 272.400,206.000 272.580,206.000 272.800 C 206.000 273.020,205.460 273.200,204.800 273.200 C 204.140 273.200,203.600 273.380,203.600 273.600 C 203.600 273.820,203.060 274.000,202.400 274.000 C 201.740 274.000,201.200 274.180,201.200 274.400 C 201.200 274.620,200.816 274.800,200.346 274.800 C 199.217 274.800,196.400 275.654,196.400 275.996 C 196.400 276.145,195.995 276.231,195.500 276.188 C 195.005 276.145,194.305 276.261,193.945 276.445 C 193.584 276.630,192.715 276.824,192.014 276.878 C 191.313 276.931,190.652 277.115,190.546 277.287 C 190.440 277.459,189.643 277.600,188.776 277.600 C 187.909 277.600,187.200 277.780,187.200 278.000 C 187.200 278.220,186.221 278.400,185.024 278.400 C 183.827 278.400,182.736 278.580,182.600 278.800 C 182.464 279.020,181.204 279.200,179.800 279.200 C 178.396 279.200,177.136 279.380,177.000 279.600 C 176.852 279.839,174.204 280.000,170.400 280.000 C 166.596 280.000,163.948 280.161,163.800 280.400 C 163.664 280.620,163.023 280.800,162.376 280.800 C 161.729 280.800,161.200 280.620,161.200 280.400 C 161.200 280.152,159.000 280.000,155.400 280.000 C 151.800 280.000,149.600 279.848,149.600 279.600 C 149.600 279.371,148.400 279.200,146.800 279.200 C 145.200 279.200,144.000 279.029,144.000 278.800 C 144.000 278.580,143.100 278.400,142.000 278.400 C 140.900 278.400,140.000 278.220,140.000 278.000 C 140.000 277.780,139.201 277.600,138.224 277.600 C 137.247 277.600,136.349 277.442,136.230 277.248 C 136.110 277.055,135.473 276.943,134.814 276.999 C 134.155 277.055,133.424 276.870,133.190 276.588 C 132.955 276.305,132.322 276.123,131.782 276.182 C 131.242 276.241,130.800 276.163,130.800 276.008 C 130.800 275.657,128.002 274.800,126.854 274.800 C 126.384 274.800,126.000 274.620,126.000 274.400 C 126.000 274.180,125.460 274.000,124.800 274.000 C 124.140 274.000,123.600 273.820,123.600 273.600 C 123.600 273.380,123.150 273.200,122.600 273.200 C 122.050 273.200,121.600 273.020,121.600 272.800 C 121.600 272.580,121.150 272.400,120.600 272.400 C 120.050 272.400,119.600 272.220,119.600 272.000 C 119.600 271.780,119.150 271.600,118.600 271.600 C 118.050 271.600,117.600 271.420,117.600 271.200 C 117.600 270.980,117.240 270.800,116.800 270.800 C 116.360 270.800,116.000 270.620,116.000 270.400 C 116.000 270.180,115.640 270.000,115.200 270.000 C 114.760 270.000,114.400 269.820,114.400 269.600 C 114.400 269.380,114.040 269.200,113.600 269.200 C 113.160 269.200,112.800 269.020,112.800 268.800 C 112.800 268.580,112.440 268.400,112.000 268.400 C 111.560 268.400,111.200 268.220,111.200 268.000 C 111.200 267.780,110.840 267.600,110.400 267.600 C 109.960 267.600,109.600 267.420,109.600 267.200 C 109.600 266.980,109.240 266.800,108.800 266.800 C 108.360 266.800,108.000 266.654,108.000 266.475 C 108.000 266.296,107.370 265.902,106.600 265.600 C 105.830 265.298,105.200 264.925,105.200 264.772 C 105.200 264.619,104.795 264.357,104.300 264.190 C 103.455 263.906,103.472 263.876,104.588 263.708 C 105.245 263.610,105.842 263.725,105.922 263.965 C 106.110 264.531,114.400 264.566,114.400 264.000 C 114.400 263.760,116.000 263.600,118.400 263.600 C 120.800 263.600,122.400 263.440,122.400 263.200 C 122.400 262.980,123.390 262.800,124.600 262.800 C 125.810 262.800,126.800 262.620,126.800 262.400 C 126.800 262.180,127.509 262.000,128.376 262.000 C 129.243 262.000,130.064 261.820,130.200 261.600 C 130.336 261.380,131.067 261.200,131.824 261.200 C 132.581 261.200,133.200 261.020,133.200 260.800 C 133.200 260.580,133.729 260.400,134.376 260.400 C 135.023 260.400,135.664 260.220,135.800 260.000 C 135.936 259.780,136.476 259.600,137.000 259.600 C 137.524 259.600,138.049 259.444,138.167 259.254 C 138.284 259.064,138.993 258.808,139.741 258.687 C 140.489 258.566,141.877 258.091,142.826 257.633 C 143.774 257.175,144.786 256.800,145.075 256.800 C 145.364 256.800,145.600 256.620,145.600 256.400 C 145.600 256.180,145.960 256.000,146.400 256.000 C 146.840 256.000,147.200 255.820,147.200 255.600 C 147.200 255.380,147.560 255.200,148.000 255.200 C 148.440 255.200,148.800 255.020,148.800 254.800 C 148.800 254.580,149.160 254.400,149.600 254.400 C 150.040 254.400,150.400 254.241,150.400 254.047 C 150.400 253.852,150.715 253.593,151.100 253.471 C 152.036 253.175,154.166 251.876,154.333 251.500 C 154.407 251.335,154.722 251.200,155.033 251.200 C 155.345 251.200,155.600 251.020,155.600 250.800 C 155.600 250.580,155.870 250.400,156.200 250.400 C 156.530 250.400,156.800 250.220,156.800 250.000 C 156.800 249.780,156.998 249.600,157.240 249.600 C 157.481 249.600,158.183 249.060,158.800 248.400 C 159.417 247.740,160.209 247.200,160.560 247.200 C 161.004 247.200,161.200 246.833,161.200 246.000 L 161.200 244.800 158.480 244.800 C 156.984 244.800,155.589 244.638,155.380 244.441 C 155.028 244.109,152.779 243.696,150.400 243.529 C 149.850 243.490,149.292 243.298,149.160 243.102 C 149.028 242.907,148.668 242.709,148.360 242.662 C 148.052 242.616,147.620 242.474,147.400 242.347 C 147.180 242.220,146.145 241.871,145.100 241.571 C 144.055 241.271,143.200 240.885,143.200 240.713 C 143.200 240.541,142.964 240.400,142.675 240.400 C 142.387 240.400,141.764 240.040,141.292 239.600 C 140.820 239.160,140.246 238.800,140.017 238.800 C 139.788 238.800,139.600 238.650,139.600 238.468 C 139.600 238.285,139.109 237.880,138.509 237.568 C 137.099 236.834,129.571 229.311,128.840 227.905 C 128.532 227.312,128.127 226.922,127.940 227.037 C 127.753 227.153,127.600 226.916,127.600 226.512 C 127.600 226.107,127.240 225.517,126.800 225.200 C 126.360 224.883,126.000 224.303,126.000 223.912 C 126.000 223.520,125.836 223.200,125.635 223.200 C 125.434 223.200,125.149 222.481,125.000 221.602 C 124.852 220.723,124.566 219.903,124.365 219.778 C 124.164 219.654,124.000 219.293,124.000 218.976 C 124.000 218.299,127.393 218.141,127.800 218.800 C 128.122 219.321,132.678 219.321,133.000 218.800 C 133.136 218.580,134.587 218.400,136.224 218.400 C 137.941 218.400,139.200 218.231,139.200 218.000 C 139.200 217.780,139.740 217.600,140.400 217.600 C 141.333 217.600,141.600 217.422,141.600 216.800 C 141.600 216.356,141.333 216.000,141.000 216.000 C 140.670 216.000,140.400 215.820,140.400 215.600 C 140.400 215.380,139.871 215.200,139.224 215.200 C 138.577 215.200,137.936 215.020,137.800 214.800 C 137.664 214.580,137.124 214.400,136.600 214.400 C 136.076 214.400,135.536 214.220,135.400 214.000 C 135.264 213.780,134.713 213.600,134.176 213.600 C 133.639 213.600,133.200 213.420,133.200 213.200 C 133.200 212.980,132.840 212.800,132.400 212.800 C 131.960 212.800,131.600 212.620,131.600 212.400 C 131.600 212.180,131.240 212.000,130.800 212.000 C 130.360 212.000,130.000 211.820,130.000 211.600 C 130.000 211.380,129.722 211.200,129.383 211.200 C 129.044 211.200,128.375 210.836,127.897 210.390 C 127.419 209.945,126.797 209.669,126.514 209.778 C 126.231 209.886,126.000 209.723,126.000 209.414 C 126.000 209.106,125.640 208.740,125.200 208.600 C 124.760 208.460,124.400 208.178,124.400 207.973 C 124.400 207.768,124.211 207.600,123.981 207.600 C 123.472 207.600,118.000 202.109,118.000 201.599 C 118.000 201.399,117.595 200.823,117.100 200.318 C 116.605 199.813,115.945 198.905,115.632 198.300 C 115.320 197.695,114.915 197.200,114.732 197.200 C 114.550 197.200,114.400 196.840,114.400 196.400 C 114.400 195.960,114.254 195.600,114.075 195.600 C 113.896 195.600,113.502 194.970,113.200 194.200 C 112.898 193.430,112.504 192.800,112.325 192.800 C 112.146 192.800,112.000 192.440,112.000 192.000 C 112.000 191.560,111.820 191.200,111.600 191.200 C 111.380 191.200,111.200 190.660,111.200 190.000 C 111.200 189.340,111.020 188.800,110.800 188.800 C 110.580 188.800,110.400 188.260,110.400 187.600 C 110.400 186.940,110.220 186.400,110.000 186.400 C 109.780 186.400,109.600 185.500,109.600 184.400 C 109.600 183.300,109.420 182.400,109.200 182.400 C 108.978 182.400,108.800 181.333,108.800 180.000 C 108.800 177.867,108.889 177.600,109.600 177.600 C 110.040 177.600,110.400 177.780,110.400 178.000 C 110.400 178.220,110.760 178.400,111.200 178.400 C 111.640 178.400,112.000 178.580,112.000 178.800 C 112.000 179.020,112.540 179.200,113.200 179.200 C 113.860 179.200,114.400 179.380,114.400 179.600 C 114.400 179.820,114.940 180.000,115.600 180.000 C 116.260 180.000,116.800 180.180,116.800 180.400 C 116.800 180.620,117.700 180.800,118.800 180.800 C 119.900 180.800,120.800 180.980,120.800 181.200 C 120.800 181.769,126.681 181.717,127.034 181.144 C 127.296 180.721,123.431 176.800,122.752 176.800 C 122.328 176.800,119.200 173.539,119.200 173.097 C 119.200 172.890,118.705 172.244,118.100 171.660 C 117.495 171.077,116.745 170.105,116.432 169.500 C 116.120 168.895,115.715 168.400,115.532 168.400 C 115.350 168.400,115.200 168.080,115.200 167.688 C 115.200 167.297,114.840 166.717,114.400 166.400 C 113.960 166.083,113.600 165.503,113.600 165.112 C 113.600 164.720,113.420 164.400,113.200 164.400 C 112.980 164.400,112.800 163.950,112.800 163.400 C 112.800 162.850,112.620 162.400,112.400 162.400 C 112.180 162.400,112.000 161.950,112.000 161.400 C 112.000 160.850,111.820 160.400,111.600 160.400 C 111.380 160.400,111.200 159.950,111.200 159.400 C 111.200 158.850,111.020 158.400,110.800 158.400 C 110.580 158.400,110.400 157.680,110.400 156.800 C 110.400 155.920,110.220 155.200,110.000 155.200 C 109.778 155.200,109.600 154.133,109.600 152.800 C 109.600 151.467,109.422 150.400,109.200 150.400 C 108.963 150.400,108.800 148.933,108.800 146.800 C 108.800 144.667,108.963 143.200,109.200 143.200 C 109.420 143.200,109.600 142.221,109.600 141.024 C 109.600 139.827,109.780 138.736,110.000 138.600 C 110.220 138.464,110.400 137.733,110.400 136.976 C 110.400 136.219,110.580 135.600,110.800 135.600 C 111.020 135.600,111.200 135.060,111.200 134.400 C 111.200 133.740,111.380 133.200,111.600 133.200 C 111.820 133.200,112.000 132.851,112.000 132.424 C 112.000 131.997,112.180 131.536,112.400 131.400 C 112.620 131.264,112.800 130.713,112.800 130.176 C 112.800 129.639,112.959 129.200,113.153 129.200 C 113.348 129.200,113.622 128.795,113.764 128.300 C 114.017 127.414,114.031 127.418,114.641 128.534 C 115.367 129.861,125.068 139.655,127.388 141.403 C 128.261 142.062,129.678 143.275,130.536 144.100 C 131.394 144.925,132.273 145.600,132.488 145.600 C 132.703 145.600,133.383 146.140,134.000 146.800 C 134.617 147.460,135.369 148.000,135.672 148.000 C 135.975 148.000,136.483 148.360,136.800 148.800 C 137.117 149.240,137.657 149.600,138.000 149.600 C 138.343 149.600,138.883 149.960,139.200 150.400 C 139.517 150.840,140.031 151.200,140.341 151.200 C 140.652 151.200,141.197 151.529,141.553 151.930 C 141.909 152.332,142.785 152.916,143.500 153.228 C 144.215 153.540,144.800 153.910,144.800 154.049 C 144.800 154.432,153.737 158.800,154.520 158.800 C 154.894 158.800,155.200 158.980,155.200 159.200 C 155.200 159.420,155.560 159.600,156.000 159.600 C 156.440 159.600,156.800 159.780,156.800 160.000 C 156.800 160.220,157.124 160.400,157.520 160.400 C 158.414 160.400,160.393 161.294,160.397 161.700 C 160.399 161.865,160.762 162.000,161.205 162.000 C 161.983 162.000,162.369 162.142,164.295 163.138 C 164.787 163.392,165.552 163.600,165.995 163.600 C 166.438 163.600,166.800 163.780,166.800 164.000 C 166.800 164.220,167.329 164.400,167.976 164.400 C 168.623 164.400,169.264 164.580,169.400 164.800 C 169.536 165.020,170.267 165.200,171.024 165.200 C 171.781 165.200,172.400 165.380,172.400 165.600 C 172.400 165.820,173.120 166.000,174.000 166.000 C 174.880 166.000,175.600 166.180,175.600 166.400 C 175.600 166.620,176.230 166.800,177.000 166.800 C 177.770 166.800,178.400 166.980,178.400 167.200 C 178.400 167.420,179.300 167.600,180.400 167.600 C 181.500 167.600,182.400 167.780,182.400 168.000 C 182.400 168.220,183.379 168.400,184.576 168.400 C 185.773 168.400,186.864 168.580,187.000 168.800 C 187.136 169.020,188.677 169.200,190.424 169.200 C 192.275 169.200,193.600 169.367,193.600 169.600 C 193.600 170.108,198.395 170.117,199.197 169.611 C 199.672 169.310,199.692 169.132,199.297 168.737 C 199.015 168.455,198.800 167.234,198.800 165.920 C 198.800 164.640,198.621 163.600,198.400 163.600 C 198.162 163.600,198.000 162.075,198.000 159.824 C 198.000 157.737,198.179 155.937,198.400 155.800 C 198.620 155.664,198.800 154.573,198.800 153.376 C 198.800 152.179,198.980 151.200,199.200 151.200 C 199.420 151.200,199.600 150.658,199.600 149.995 C 199.600 149.332,199.780 148.432,200.000 147.995 C 200.220 147.558,200.580 146.842,200.800 146.405 C 201.020 145.968,201.200 145.248,201.200 144.805 C 201.200 144.362,201.380 144.000,201.600 144.000 C 201.820 144.000,202.000 143.640,202.000 143.200 C 202.000 142.760,202.180 142.400,202.400 142.400 C 202.620 142.400,202.800 142.040,202.800 141.600 C 202.800 141.160,202.980 140.800,203.200 140.800 C 203.420 140.800,203.600 140.530,203.600 140.200 C 203.600 139.870,203.780 139.600,204.000 139.600 C 204.220 139.600,204.400 139.364,204.400 139.075 C 204.400 138.787,204.736 138.191,205.146 137.750 C 205.556 137.310,206.117 136.528,206.393 136.012 C 207.309 134.301,213.801 127.600,214.542 127.600 C 214.807 127.600,215.283 127.240,215.600 126.800 C 215.917 126.360,216.482 126.000,216.855 126.000 C 217.228 126.000,217.593 125.854,217.667 125.675 C 217.864 125.193,223.694 122.400,224.504 122.400 C 224.887 122.400,225.200 122.220,225.200 122.000 C 225.200 121.780,225.740 121.600,226.400 121.600 C 227.060 121.600,227.600 121.420,227.600 121.200 C 227.600 120.980,228.320 120.800,229.200 120.800 C 230.080 120.800,230.800 120.620,230.800 120.400 C 230.800 120.165,232.192 120.000,234.176 120.000 C 236.033 120.000,237.664 119.820,237.800 119.600 C 237.936 119.380,238.217 119.200,238.424 119.200 C 238.631 119.200,238.800 119.380,238.800 119.600 " stroke="none" fill="#44a4f4" fill-rule="evenodd"></path><path id="path1" d="" stroke="none" fill="#48a4f4" fill-rule="evenodd"></path><path id="path2" d="" stroke="none" fill="#48a4f4" fill-rule="evenodd"></path><path id="path3" d="" stroke="none" fill="#48a4f4" fill-rule="evenodd"></path><path id="path4" d="" stroke="none" fill="#48a4f4" fill-rule="evenodd"></path></g></svg>